M48
; DRILL file {KiCad 7.0.7} date Thu Jul 11 11:51:28 2024
; FORMAT={-:-/ absolute / metric / decimal}
; #@! TF.CreationDate,2024-07-11T11:51:28-04:00
; #@! TF.GenerationSoftware,Kicad,Pcbnew,7.0.7
; #@! TF.FileFunction,Plated,1,2,PTH
FMAT,2
METRIC
; #@! TA.AperFunction,Plated,PTH,ViaDrill
T1C0.400
; #@! TA.AperFunction,Plated,PTH,ComponentDrill
T2C0.600
; #@! TA.AperFunction,Plated,PTH,ComponentDrill
T3C1.000
%
G90
G05
T1
X138.938Y-109.093
X139.192Y-104.267
X139.319Y-101.473
X140.882Y-102.653
X141.986Y-97.483
X142.073Y-98.932
X142.24Y-110.998
X142.329Y-109.856
X142.912Y-105.664
X143.129Y-107.315
X143.773Y-98.932
X144.272Y-97.483
X144.966Y-99.251
X145.613Y-108.315
X145.669Y-105.537
X145.669Y-106.537
X147.871Y-105.346
X147.884Y-107.879
X148.082Y-109.728
X150.622Y-106.917
X151.765Y-106.934
X152.214Y-105.582
X152.654Y-99.187
X152.768Y-103.15
X152.908Y-101.854
X153.162Y-100.154
X155.601Y-105.588
T3
X139.7Y-91.948
X139.7Y-94.488
X139.7Y-97.028
X139.7Y-99.568
X146.065Y-91.948
X148.605Y-91.694
X151.145Y-91.948
X157.48Y-91.948
X157.48Y-94.488
X157.48Y-97.028
X157.48Y-99.568
T2
G00X149.882Y-104.419
M15
G01X149.882Y-105.519
M16
G05
G00X149.882Y-108.769
M15
G01X149.882Y-109.569
M16
G05
G00X158.522Y-104.419
M15
G01X158.522Y-105.519
M16
G05
G00X158.522Y-108.769
M15
G01X158.522Y-109.569
M16
G05
T0
M30
