%TF.GenerationSoftware,KiCad,Pcbnew,7.0.7*%
%TF.CreationDate,2024-07-11T11:51:31-04:00*%
%TF.ProjectId,attiny412_breakout,61747469-6e79-4343-9132-5f627265616b,1.0*%
%TF.SameCoordinates,Original*%
%TF.FileFunction,Soldermask,Top*%
%TF.FilePolarity,Negative*%
%FSLAX46Y46*%
G04 Gerber Fmt 4.6, Leading zero omitted, Abs format (unit mm)*
G04 Created by KiCad (PCBNEW 7.0.7) date 2024-07-11 11:51:31*
%MOMM*%
%LPD*%
G01*
G04 APERTURE LIST*
G04 Aperture macros list*
%AMRoundRect*
0 Rectangle with rounded corners*
0 $1 Rounding radius*
0 $2 $3 $4 $5 $6 $7 $8 $9 X,Y pos of 4 corners*
0 Add a 4 corners polygon primitive as box body*
4,1,4,$2,$3,$4,$5,$6,$7,$8,$9,$2,$3,0*
0 Add four circle primitives for the rounded corners*
1,1,$1+$1,$2,$3*
1,1,$1+$1,$4,$5*
1,1,$1+$1,$6,$7*
1,1,$1+$1,$8,$9*
0 Add four rect primitives between the rounded corners*
20,1,$1+$1,$2,$3,$4,$5,0*
20,1,$1+$1,$4,$5,$6,$7,0*
20,1,$1+$1,$6,$7,$8,$9,0*
20,1,$1+$1,$8,$9,$2,$3,0*%
G04 Aperture macros list end*
%ADD10RoundRect,0.150000X-0.825000X-0.150000X0.825000X-0.150000X0.825000X0.150000X-0.825000X0.150000X0*%
%ADD11R,0.700000X1.200000*%
%ADD12R,1.700000X1.700000*%
%ADD13O,1.700000X1.700000*%
%ADD14C,0.650000*%
%ADD15R,0.600000X1.240000*%
%ADD16R,0.300000X1.240000*%
%ADD17O,1.000000X1.800000*%
%ADD18O,1.000000X2.100000*%
%ADD19RoundRect,0.218750X-0.256250X0.218750X-0.256250X-0.218750X0.256250X-0.218750X0.256250X0.218750X0*%
G04 APERTURE END LIST*
D10*
%TO.C,U2*%
X146115000Y-94615000D03*
X146115000Y-95885000D03*
X146115000Y-97155000D03*
X146115000Y-98425000D03*
X151065000Y-98425000D03*
X151065000Y-97155000D03*
X151065000Y-95885000D03*
X151065000Y-94615000D03*
%TD*%
D11*
%TO.C,SW1*%
X140756000Y-104446000D03*
X143256000Y-104446000D03*
X145756000Y-104446000D03*
X140756000Y-110946000D03*
X143256000Y-110946000D03*
X145756000Y-110946000D03*
%TD*%
D12*
%TO.C,J4*%
X146065000Y-91948000D03*
D13*
X148605000Y-91694000D03*
X151145000Y-91948000D03*
%TD*%
D12*
%TO.C,J3*%
X157480000Y-91948000D03*
D13*
X157480000Y-94488000D03*
X157480000Y-97028000D03*
X157480000Y-99568000D03*
%TD*%
D12*
%TO.C,J2*%
X139700000Y-91948000D03*
D13*
X139700000Y-94488000D03*
X139700000Y-97028000D03*
X139700000Y-99568000D03*
%TD*%
D14*
%TO.C,J1*%
X151311600Y-105488694D03*
X157091600Y-105488694D03*
D15*
X151001600Y-104368694D03*
X151801600Y-104368694D03*
D16*
X152951600Y-104368694D03*
X153951600Y-104368694D03*
X154451600Y-104368694D03*
X155451600Y-104368694D03*
D15*
X156601600Y-104368694D03*
X157401600Y-104368694D03*
X157401600Y-104368694D03*
X156601600Y-104368694D03*
D16*
X155951600Y-104368694D03*
X154951600Y-104368694D03*
X153451600Y-104368694D03*
X152451600Y-104368694D03*
D15*
X151801600Y-104368694D03*
X151001600Y-104368694D03*
D17*
X149881600Y-109168694D03*
D18*
X149881600Y-104968694D03*
X158521600Y-104968694D03*
D17*
X158521600Y-109168694D03*
%TD*%
D19*
%TO.C,D4*%
X147574000Y-101651000D03*
X147574000Y-100076000D03*
%TD*%
%TO.C,D3*%
X149352000Y-100076000D03*
X149352000Y-101651000D03*
%TD*%
%TO.C,D2*%
X154432000Y-100076000D03*
X154432000Y-101651000D03*
%TD*%
%TO.C,D1*%
X143002000Y-101651000D03*
X143002000Y-100076000D03*
%TD*%
M02*
