%TF.GenerationSoftware,KiCad,Pcbnew,7.0.7*%
%TF.CreationDate,2024-07-11T11:51:31-04:00*%
%TF.ProjectId,attiny412_breakout,61747469-6e79-4343-9132-5f627265616b,1.0*%
%TF.SameCoordinates,Original*%
%TF.FileFunction,Copper,L1,Top*%
%TF.FilePolarity,Positive*%
%FSLAX46Y46*%
G04 Gerber Fmt 4.6, Leading zero omitted, Abs format (unit mm)*
G04 Created by KiCad (PCBNEW 7.0.7) date 2024-07-11 11:51:31*
%MOMM*%
%LPD*%
G01*
G04 APERTURE LIST*
G04 Aperture macros list*
%AMRoundRect*
0 Rectangle with rounded corners*
0 $1 Rounding radius*
0 $2 $3 $4 $5 $6 $7 $8 $9 X,Y pos of 4 corners*
0 Add a 4 corners polygon primitive as box body*
4,1,4,$2,$3,$4,$5,$6,$7,$8,$9,$2,$3,0*
0 Add four circle primitives for the rounded corners*
1,1,$1+$1,$2,$3*
1,1,$1+$1,$4,$5*
1,1,$1+$1,$6,$7*
1,1,$1+$1,$8,$9*
0 Add four rect primitives between the rounded corners*
20,1,$1+$1,$2,$3,$4,$5,0*
20,1,$1+$1,$4,$5,$6,$7,0*
20,1,$1+$1,$6,$7,$8,$9,0*
20,1,$1+$1,$8,$9,$2,$3,0*%
G04 Aperture macros list end*
%TA.AperFunction,SMDPad,CuDef*%
%ADD10RoundRect,0.150000X-0.825000X-0.150000X0.825000X-0.150000X0.825000X0.150000X-0.825000X0.150000X0*%
%TD*%
%TA.AperFunction,SMDPad,CuDef*%
%ADD11R,0.700000X1.200000*%
%TD*%
%TA.AperFunction,ComponentPad*%
%ADD12R,1.700000X1.700000*%
%TD*%
%TA.AperFunction,ComponentPad*%
%ADD13O,1.700000X1.700000*%
%TD*%
%TA.AperFunction,SMDPad,CuDef*%
%ADD14R,0.600000X1.240000*%
%TD*%
%TA.AperFunction,SMDPad,CuDef*%
%ADD15R,0.300000X1.240000*%
%TD*%
%TA.AperFunction,ComponentPad*%
%ADD16O,1.000000X1.800000*%
%TD*%
%TA.AperFunction,ComponentPad*%
%ADD17O,1.000000X2.100000*%
%TD*%
%TA.AperFunction,SMDPad,CuDef*%
%ADD18RoundRect,0.218750X-0.256250X0.218750X-0.256250X-0.218750X0.256250X-0.218750X0.256250X0.218750X0*%
%TD*%
%TA.AperFunction,ViaPad*%
%ADD19C,0.800000*%
%TD*%
%TA.AperFunction,Conductor*%
%ADD20C,0.250000*%
%TD*%
%TA.AperFunction,Conductor*%
%ADD21C,0.200000*%
%TD*%
%TA.AperFunction,Conductor*%
%ADD22C,0.500000*%
%TD*%
G04 APERTURE END LIST*
D10*
%TO.P,U2,1,VCC*%
%TO.N,+3V3*%
X146115000Y-94615000D03*
%TO.P,U2,2,PA6*%
%TO.N,TXO*%
X146115000Y-95885000D03*
%TO.P,U2,3,PA7*%
%TO.N,RXI*%
X146115000Y-97155000D03*
%TO.P,U2,4,PA1*%
%TO.N,PA1*%
X146115000Y-98425000D03*
%TO.P,U2,5,PA2*%
%TO.N,PA2*%
X151065000Y-98425000D03*
%TO.P,U2,6,~{RESET}/PA0*%
%TO.N,UPDI*%
X151065000Y-97155000D03*
%TO.P,U2,7,PA3*%
%TO.N,PA3*%
X151065000Y-95885000D03*
%TO.P,U2,8,GND*%
%TO.N,GND*%
X151065000Y-94615000D03*
%TD*%
D11*
%TO.P,SW1,1,A*%
%TO.N,RXI*%
X140756000Y-104446000D03*
%TO.P,SW1,2,B*%
%TO.N,Net-(SW1A-B)*%
X143256000Y-104446000D03*
%TO.P,SW1,3,C*%
%TO.N,Net-(SW1A-C)*%
X145756000Y-104446000D03*
%TO.P,SW1,4,A*%
%TO.N,TXO*%
X140756000Y-110946000D03*
%TO.P,SW1,5,B*%
%TO.N,Net-(SW1B-B)*%
X143256000Y-110946000D03*
%TO.P,SW1,6,C*%
%TO.N,UPDI*%
X145756000Y-110946000D03*
%TD*%
D12*
%TO.P,J4,1,Pin_1*%
%TO.N,+3V3*%
X146065000Y-91948000D03*
D13*
%TO.P,J4,2,Pin_2*%
%TO.N,GND*%
X148605000Y-91694000D03*
%TO.P,J4,3,Pin_3*%
%TO.N,UPDI*%
X151145000Y-91948000D03*
%TD*%
D12*
%TO.P,J3,1,Pin_1*%
%TO.N,GND*%
X157480000Y-91948000D03*
D13*
%TO.P,J3,2,Pin_2*%
%TO.N,PA3*%
X157480000Y-94488000D03*
%TO.P,J3,3,Pin_3*%
%TO.N,UPDI*%
X157480000Y-97028000D03*
%TO.P,J3,4,Pin_4*%
%TO.N,PA2*%
X157480000Y-99568000D03*
%TD*%
D12*
%TO.P,J2,1,Pin_1*%
%TO.N,+3V3*%
X139700000Y-91948000D03*
D13*
%TO.P,J2,2,Pin_2*%
%TO.N,TXO*%
X139700000Y-94488000D03*
%TO.P,J2,3,Pin_3*%
%TO.N,RXI*%
X139700000Y-97028000D03*
%TO.P,J2,4,Pin_4*%
%TO.N,PA1*%
X139700000Y-99568000D03*
%TD*%
D14*
%TO.P,J1,A1,GND*%
%TO.N,GND*%
X151001600Y-104368694D03*
%TO.P,J1,A4,VBUS*%
%TO.N,Net-(F1-Pad1)*%
X151801600Y-104368694D03*
D15*
%TO.P,J1,A5,CC1*%
%TO.N,Net-(J1-CC1)*%
X152951600Y-104368694D03*
%TO.P,J1,A6,D+*%
%TO.N,D+*%
X153951600Y-104368694D03*
%TO.P,J1,A7,D-*%
%TO.N,D-*%
X154451600Y-104368694D03*
%TO.P,J1,A8,SBU1*%
%TO.N,unconnected-(J1-SBU1-PadA8)*%
X155451600Y-104368694D03*
D14*
%TO.P,J1,A9,VBUS*%
%TO.N,Net-(F1-Pad1)*%
X156601600Y-104368694D03*
%TO.P,J1,A12,GND*%
%TO.N,GND*%
X157401600Y-104368694D03*
%TO.P,J1,B1,GND*%
X157401600Y-104368694D03*
%TO.P,J1,B4,VBUS*%
%TO.N,Net-(F1-Pad1)*%
X156601600Y-104368694D03*
D15*
%TO.P,J1,B5,CC2*%
%TO.N,Net-(J1-CC2)*%
X155951600Y-104368694D03*
%TO.P,J1,B6,D+*%
%TO.N,D+*%
X154951600Y-104368694D03*
%TO.P,J1,B7,D-*%
%TO.N,D-*%
X153451600Y-104368694D03*
%TO.P,J1,B8,SBU2*%
%TO.N,unconnected-(J1-SBU2-PadB8)*%
X152451600Y-104368694D03*
D14*
%TO.P,J1,B9,VBUS*%
%TO.N,Net-(F1-Pad1)*%
X151801600Y-104368694D03*
%TO.P,J1,B12,GND*%
%TO.N,GND*%
X151001600Y-104368694D03*
D16*
%TO.P,J1,S1,SHIELD*%
%TO.N,GND1*%
X149881600Y-109168694D03*
D17*
X149881600Y-104968694D03*
X158521600Y-104968694D03*
D16*
X158521600Y-109168694D03*
%TD*%
D18*
%TO.P,D4,2,A*%
%TO.N,Net-(D4-A)*%
X147574000Y-101651000D03*
%TO.P,D4,1,K*%
%TO.N,RXI*%
X147574000Y-100076000D03*
%TD*%
%TO.P,D3,1,K*%
%TO.N,TXO*%
X149352000Y-100076000D03*
%TO.P,D3,2,A*%
%TO.N,Net-(D3-A)*%
X149352000Y-101651000D03*
%TD*%
%TO.P,D2,1,K*%
%TO.N,GND*%
X154432000Y-100076000D03*
%TO.P,D2,2,A*%
%TO.N,Net-(D2-A)*%
X154432000Y-101651000D03*
%TD*%
%TO.P,D1,2,A*%
%TO.N,Net-(D1-A)*%
X143002000Y-101651000D03*
%TO.P,D1,1,K*%
%TO.N,GND*%
X143002000Y-100076000D03*
%TD*%
D19*
%TO.N,Net-(D3-A)*%
X144965605Y-99250662D03*
%TO.N,Net-(D4-A)*%
X143773000Y-98932500D03*
%TO.N,Net-(D1-A)*%
X142073500Y-98932500D03*
%TO.N,UPDI*%
X147883939Y-107878939D03*
X147871500Y-105346500D03*
%TO.N,GND*%
X139192000Y-104267000D03*
X138938000Y-109093000D03*
%TO.N,TXO*%
X139319000Y-101473000D03*
%TO.N,VBUS*%
X144272000Y-97483500D03*
X141986000Y-97483500D03*
%TO.N,GND*%
X140882500Y-102653500D03*
X142240000Y-110998000D03*
%TO.N,UD+*%
X153162000Y-100154500D03*
%TO.N,UD-*%
X152654000Y-99187000D03*
X142329443Y-109856127D03*
%TO.N,GND*%
X148082000Y-109728000D03*
%TO.N,D-*%
X151765000Y-106934000D03*
%TO.N,D+*%
X150622000Y-106917000D03*
%TO.N,UPDI*%
X145669000Y-106536503D03*
%TO.N,Net-(SW1A-C)*%
X145669000Y-105537000D03*
%TO.N,UD+*%
X145612973Y-108315024D03*
%TO.N,Net-(D2-A)*%
X152908000Y-101854000D03*
%TO.N,Net-(SW1A-B)*%
X142912500Y-105664000D03*
%TO.N,Net-(SW1B-B)*%
X143129000Y-107315000D03*
%TO.N,Net-(F1-Pad1)*%
X152768336Y-103150116D03*
%TO.N,Net-(J1-CC2)*%
X155601100Y-105588196D03*
%TO.N,Net-(J1-CC1)*%
X152213657Y-105581710D03*
%TD*%
D20*
%TO.N,Net-(D4-A)*%
X146729547Y-101651000D02*
X147828000Y-101651000D01*
X145602273Y-100523726D02*
X146729547Y-101651000D01*
X144592726Y-100523726D02*
X145602273Y-100523726D01*
X143814800Y-98974300D02*
X143814800Y-99771200D01*
X143840200Y-99771200D02*
X144592726Y-100523726D01*
X143773000Y-98932500D02*
X143814800Y-98974300D01*
X143814800Y-99771200D02*
X143840200Y-99771200D01*
%TO.N,RXI*%
X139700000Y-97028000D02*
X138525000Y-98203000D01*
X138525000Y-98203000D02*
X138525000Y-102077396D01*
X138525000Y-102077396D02*
X140756000Y-104308396D01*
X140756000Y-104308396D02*
X140756000Y-104446000D01*
%TO.N,UPDI*%
X145756000Y-110006878D02*
X145756000Y-110946000D01*
X147883939Y-107878939D02*
X145756000Y-110006878D01*
D21*
%TO.N,UD+*%
X151998186Y-100154500D02*
X153162000Y-100154500D01*
X151104000Y-101048686D02*
X151998186Y-100154500D01*
X151104000Y-102309704D02*
X151104000Y-101048686D01*
X148971000Y-105802635D02*
X148971000Y-104013000D01*
X148971000Y-104013000D02*
X149491500Y-103492500D01*
X149921205Y-103492500D02*
X151104000Y-102309704D01*
X145628949Y-108331000D02*
X146442635Y-108331000D01*
X146442635Y-108331000D02*
X148971000Y-105802635D01*
X145612973Y-108315024D02*
X145628949Y-108331000D01*
X149491500Y-103492500D02*
X149921205Y-103492500D01*
%TO.N,UD-*%
X152400000Y-99187000D02*
X152654000Y-99187000D01*
X150704000Y-100883000D02*
X152400000Y-99187000D01*
X150704000Y-102144019D02*
X150704000Y-100883000D01*
X149755519Y-103092500D02*
X150704000Y-102144019D01*
X149325814Y-103092500D02*
X149755519Y-103092500D01*
X148571000Y-103847314D02*
X149325814Y-103092500D01*
X145379050Y-107236503D02*
X146971447Y-107236503D01*
X144757547Y-106615000D02*
X145379050Y-107236503D01*
X142839050Y-106615000D02*
X144757547Y-106615000D01*
X142326787Y-107127263D02*
X142839050Y-106615000D01*
X148571000Y-105636950D02*
X148571000Y-103847314D01*
X142326787Y-109853471D02*
X142326787Y-107127263D01*
X142329443Y-109856127D02*
X142326787Y-109853471D01*
X146971447Y-107236503D02*
X148571000Y-105636950D01*
D20*
%TO.N,UPDI*%
X148018500Y-105346500D02*
X147871500Y-105346500D01*
X148018500Y-105346500D02*
X148146000Y-105219000D01*
X146828497Y-106536503D02*
X148018500Y-105346500D01*
X149733000Y-97155000D02*
X151065000Y-97155000D01*
X149352000Y-98679000D02*
X149352000Y-97536000D01*
X149149774Y-102667500D02*
X149579479Y-102667500D01*
X150279000Y-101967979D02*
X150279000Y-99606000D01*
X148146000Y-103671274D02*
X149149774Y-102667500D01*
X149352000Y-97536000D02*
X149733000Y-97155000D01*
X148146000Y-105219000D02*
X148146000Y-103671274D01*
X149579479Y-102667500D02*
X150279000Y-101967979D01*
X150279000Y-99606000D02*
X149352000Y-98679000D01*
X145669000Y-106536503D02*
X146828497Y-106536503D01*
%TO.N,GND1*%
X158521600Y-109168694D02*
X149881600Y-109168694D01*
X158521600Y-104968694D02*
X158521600Y-109168694D01*
X149881600Y-104968694D02*
X149881600Y-109168694D01*
%TO.N,TXO*%
X139319000Y-102235000D02*
X139319000Y-101473000D01*
X139573000Y-102489000D02*
X139319000Y-102235000D01*
X140462000Y-103378000D02*
X139573000Y-102489000D01*
D22*
%TO.N,GND*%
X157401600Y-102283600D02*
X157401600Y-104368694D01*
X155194000Y-100076000D02*
X157401600Y-102283600D01*
X154432000Y-100076000D02*
X155194000Y-100076000D01*
X154432000Y-100086582D02*
X154432000Y-100076000D01*
X153514582Y-101004000D02*
X154432000Y-100086582D01*
X152555918Y-101004000D02*
X153514582Y-101004000D01*
D20*
%TO.N,TXO*%
X140756000Y-109180000D02*
X140756000Y-110946000D01*
X141605000Y-108331000D02*
X140756000Y-109180000D01*
X141605000Y-103759000D02*
X141605000Y-108331000D01*
X141224000Y-103378000D02*
X141605000Y-103759000D01*
X140462000Y-103378000D02*
X141224000Y-103378000D01*
D22*
%TO.N,VBUS*%
X141986000Y-97483500D02*
X144272000Y-97483500D01*
D20*
%TO.N,PA1*%
X145034000Y-98425000D02*
X146115000Y-98425000D01*
X144817000Y-98208000D02*
X145034000Y-98425000D01*
X141060000Y-98208000D02*
X144817000Y-98208000D01*
X139700000Y-99568000D02*
X141060000Y-98208000D01*
%TO.N,RXI*%
X140335000Y-96393000D02*
X139700000Y-97028000D01*
X144976249Y-96393000D02*
X140335000Y-96393000D01*
X145738249Y-97155000D02*
X144976249Y-96393000D01*
X146115000Y-97155000D02*
X145738249Y-97155000D01*
%TO.N,Net-(D1-A)*%
X142202000Y-101105000D02*
X143002000Y-101905000D01*
X142240000Y-98933000D02*
X142202000Y-98971000D01*
X142202000Y-98971000D02*
X142202000Y-101105000D01*
D22*
%TO.N,+3V3*%
X146065000Y-94565000D02*
X146115000Y-94615000D01*
X146065000Y-91948000D02*
X146065000Y-94565000D01*
D20*
%TO.N,Net-(J1-CC2)*%
X155601100Y-105588196D02*
X155951600Y-105237696D01*
X155951600Y-105237696D02*
X155951600Y-104368694D01*
D22*
%TO.N,GND*%
X152058000Y-101501918D02*
X152555918Y-101004000D01*
X152058000Y-102133522D02*
X152058000Y-101501918D01*
X151001600Y-103189922D02*
X152058000Y-102133522D01*
X151001600Y-104368694D02*
X151001600Y-103189922D01*
D20*
%TO.N,TXO*%
X148336000Y-98933000D02*
X148336000Y-97407604D01*
X149479000Y-100076000D02*
X148336000Y-98933000D01*
%TO.N,RXI*%
X147828000Y-100076000D02*
X147828000Y-97536000D01*
%TO.N,Net-(D3-A)*%
X148716500Y-100888500D02*
X146603443Y-100888500D01*
X146603443Y-100888500D02*
X144965605Y-99250662D01*
X149479000Y-101651000D02*
X148716500Y-100888500D01*
D22*
%TO.N,Net-(F1-Pad1)*%
X156111694Y-102898694D02*
X156601600Y-103388600D01*
X156601600Y-103388600D02*
X156601600Y-104368694D01*
X151801600Y-103468400D02*
X152371306Y-102898694D01*
X151801600Y-104368694D02*
X151801600Y-103468400D01*
X152371306Y-102898694D02*
X156111694Y-102898694D01*
X152768336Y-103150116D02*
X152619758Y-103298694D01*
D20*
%TO.N,UPDI*%
X145669000Y-106536503D02*
X145521497Y-106389000D01*
D22*
%TO.N,GND*%
X151001600Y-104368694D02*
X150915000Y-104282094D01*
D20*
%TO.N,Net-(SW1A-C)*%
X145669000Y-104533000D02*
X145756000Y-104446000D01*
X145669000Y-105537000D02*
X145669000Y-104533000D01*
%TO.N,TXO*%
X146813396Y-95885000D02*
X146115000Y-95885000D01*
X148336000Y-97407604D02*
X146813396Y-95885000D01*
%TO.N,Net-(SW1B-B)*%
X143256000Y-107442000D02*
X143256000Y-110946000D01*
X143129000Y-107315000D02*
X143256000Y-107442000D01*
D21*
%TO.N,D-*%
X151765000Y-106934000D02*
X152019000Y-106934000D01*
X152019000Y-106934000D02*
X153451600Y-105501400D01*
X153451600Y-105501400D02*
X153451600Y-104368694D01*
%TO.N,D+*%
X154901600Y-106464400D02*
X154901600Y-105288694D01*
X153543000Y-107823000D02*
X154901600Y-106464400D01*
X151528000Y-107823000D02*
X153543000Y-107823000D01*
X150622000Y-106917000D02*
X151528000Y-107823000D01*
X150622000Y-106917000D02*
X150732000Y-106807000D01*
%TO.N,D-*%
X153501600Y-103448694D02*
X153451600Y-103498694D01*
X154401600Y-103448694D02*
X153501600Y-103448694D01*
X154451600Y-103498694D02*
X154401600Y-103448694D01*
X153451600Y-103498694D02*
X153451600Y-104368694D01*
X154451600Y-104368694D02*
X154451600Y-103498694D01*
%TO.N,D+*%
X154951600Y-105238694D02*
X154951600Y-104368694D01*
X154901600Y-105288694D02*
X154951600Y-105238694D01*
X154001600Y-105288694D02*
X154901600Y-105288694D01*
X153951600Y-105238694D02*
X154001600Y-105288694D01*
X153951600Y-104368694D02*
X153951600Y-105238694D01*
D20*
%TO.N,PA2*%
X156337000Y-98425000D02*
X157480000Y-99568000D01*
X151065000Y-98425000D02*
X156337000Y-98425000D01*
%TO.N,UPDI*%
X155702000Y-97028000D02*
X157480000Y-97028000D01*
X155575000Y-97155000D02*
X155702000Y-97028000D01*
X151065000Y-97155000D02*
X155575000Y-97155000D01*
%TO.N,PA3*%
X151065000Y-95885000D02*
X156083000Y-95885000D01*
X156083000Y-95885000D02*
X157480000Y-94488000D01*
D22*
%TO.N,+3V3*%
X139700000Y-91948000D02*
X146065000Y-91948000D01*
D20*
%TO.N,TXO*%
X141097000Y-95885000D02*
X139700000Y-94488000D01*
X146115000Y-95885000D02*
X141097000Y-95885000D01*
%TO.N,RXI*%
X147447000Y-97155000D02*
X146115000Y-97155000D01*
X147828000Y-97536000D02*
X147447000Y-97155000D01*
%TO.N,Net-(D2-A)*%
X154381000Y-101854000D02*
X154432000Y-101905000D01*
X152908000Y-101854000D02*
X154381000Y-101854000D01*
%TO.N,Net-(SW1A-B)*%
X142912500Y-104789500D02*
X143256000Y-104446000D01*
X142912500Y-105664000D02*
X142912500Y-104789500D01*
%TO.N,Net-(J1-CC1)*%
X152658584Y-105581710D02*
X152213657Y-105581710D01*
X152951600Y-105288694D02*
X152658584Y-105581710D01*
X152951600Y-104368694D02*
X152951600Y-105288694D01*
%TD*%
%TA.AperFunction,Conductor*%
%TO.N,GND*%
G36*
X158592424Y-90353633D02*
G01*
X158658798Y-90360170D01*
X158716764Y-90365879D01*
X158735796Y-90369665D01*
X158848361Y-90403810D01*
X158866281Y-90411233D01*
X158970027Y-90466686D01*
X158986155Y-90477462D01*
X159077090Y-90552090D01*
X159090810Y-90565810D01*
X159165432Y-90656737D01*
X159176214Y-90672874D01*
X159231661Y-90776608D01*
X159239088Y-90794538D01*
X159273233Y-90907099D01*
X159277019Y-90926132D01*
X159289261Y-91050411D01*
X159289500Y-91055266D01*
X159289500Y-103980352D01*
X159270593Y-104038543D01*
X159221093Y-104074507D01*
X159159907Y-104074507D01*
X159110407Y-104038543D01*
X159109025Y-104036591D01*
X159096753Y-104018812D01*
X159049783Y-103950765D01*
X158922452Y-103837960D01*
X158771825Y-103758904D01*
X158771824Y-103758903D01*
X158771823Y-103758903D01*
X158606658Y-103718194D01*
X158606656Y-103718194D01*
X158436544Y-103718194D01*
X158436541Y-103718194D01*
X158271376Y-103758903D01*
X158120743Y-103837962D01*
X158116247Y-103841946D01*
X158060152Y-103866380D01*
X158000408Y-103853176D01*
X157959836Y-103807376D01*
X157951600Y-103767842D01*
X157951600Y-103724071D01*
X157951599Y-103724069D01*
X157937093Y-103651147D01*
X157937092Y-103651145D01*
X157881841Y-103568456D01*
X157881837Y-103568452D01*
X157799148Y-103513201D01*
X157799146Y-103513200D01*
X157726224Y-103498694D01*
X157526601Y-103498694D01*
X157526600Y-103498695D01*
X157526600Y-104394694D01*
X157507693Y-104452885D01*
X157458193Y-104488849D01*
X157427600Y-104493694D01*
X157201100Y-104493694D01*
X157142909Y-104474787D01*
X157106945Y-104425287D01*
X157102100Y-104394694D01*
X157102100Y-104342694D01*
X157121007Y-104284503D01*
X157170507Y-104248539D01*
X157201100Y-104243694D01*
X157276599Y-104243694D01*
X157276600Y-104243693D01*
X157276600Y-103498695D01*
X157276599Y-103498694D01*
X157153327Y-103498694D01*
X157095136Y-103479787D01*
X157059172Y-103430287D01*
X157054949Y-103388610D01*
X157056870Y-103371565D01*
X157045810Y-103313111D01*
X157036948Y-103254313D01*
X157036947Y-103254310D01*
X157034762Y-103247226D01*
X157035183Y-103247095D01*
X157034489Y-103244986D01*
X157034074Y-103245132D01*
X157031623Y-103238127D01*
X157003822Y-103185526D01*
X156978026Y-103131960D01*
X156973846Y-103125829D01*
X156974210Y-103125580D01*
X156972924Y-103123769D01*
X156972570Y-103124031D01*
X156968166Y-103118063D01*
X156926116Y-103076013D01*
X156885656Y-103032406D01*
X156879858Y-103027783D01*
X156880132Y-103027439D01*
X156868997Y-103018894D01*
X156450096Y-102599992D01*
X156446394Y-102595849D01*
X156421573Y-102564724D01*
X156372422Y-102531213D01*
X156324576Y-102495901D01*
X156324573Y-102495899D01*
X156318016Y-102492434D01*
X156318220Y-102492046D01*
X156316238Y-102491046D01*
X156316049Y-102491440D01*
X156309367Y-102488222D01*
X156252516Y-102470686D01*
X156196394Y-102451048D01*
X156189108Y-102449670D01*
X156189189Y-102449238D01*
X156186996Y-102448865D01*
X156186931Y-102449299D01*
X156179597Y-102448194D01*
X156179596Y-102448194D01*
X156120121Y-102448194D01*
X156100308Y-102447452D01*
X156060684Y-102445970D01*
X156060683Y-102445970D01*
X156060682Y-102445970D01*
X156053309Y-102446801D01*
X156053259Y-102446362D01*
X156039350Y-102448194D01*
X154888832Y-102448194D01*
X154830641Y-102429287D01*
X154794677Y-102379787D01*
X154794677Y-102318601D01*
X154830641Y-102269101D01*
X154843886Y-102260985D01*
X154856966Y-102254320D01*
X154937751Y-102213158D01*
X155031658Y-102119251D01*
X155091951Y-102000920D01*
X155107500Y-101902746D01*
X155107500Y-101399254D01*
X155107499Y-101399250D01*
X155098121Y-101340038D01*
X155091951Y-101301080D01*
X155031658Y-101182749D01*
X154937751Y-101088842D01*
X154901223Y-101070230D01*
X154819423Y-101028550D01*
X154819420Y-101028549D01*
X154792012Y-101024208D01*
X154721249Y-101013000D01*
X154721246Y-101013000D01*
X154142754Y-101013000D01*
X154142751Y-101013000D01*
X154044580Y-101028549D01*
X154044576Y-101028550D01*
X153926250Y-101088841D01*
X153832341Y-101182750D01*
X153772050Y-101301076D01*
X153772049Y-101301080D01*
X153756500Y-101399251D01*
X153756500Y-101429500D01*
X153737593Y-101487691D01*
X153688093Y-101523655D01*
X153657500Y-101528500D01*
X153463970Y-101528500D01*
X153405779Y-101509593D01*
X153385428Y-101489767D01*
X153372562Y-101473000D01*
X153336282Y-101425718D01*
X153336277Y-101425714D01*
X153336276Y-101425713D01*
X153264985Y-101371010D01*
X153210841Y-101329464D01*
X153210840Y-101329463D01*
X153210838Y-101329462D01*
X153064766Y-101268957D01*
X153064758Y-101268955D01*
X152908001Y-101248318D01*
X152907999Y-101248318D01*
X152751241Y-101268955D01*
X152751233Y-101268957D01*
X152605161Y-101329462D01*
X152605160Y-101329462D01*
X152479723Y-101425713D01*
X152479713Y-101425723D01*
X152383462Y-101551160D01*
X152383462Y-101551161D01*
X152322957Y-101697233D01*
X152322955Y-101697241D01*
X152302318Y-101853999D01*
X152302318Y-101854000D01*
X152322955Y-102010758D01*
X152322957Y-102010766D01*
X152383462Y-102156838D01*
X152383462Y-102156839D01*
X152483668Y-102287430D01*
X152481624Y-102288998D01*
X152504404Y-102333707D01*
X152494833Y-102394139D01*
X152451568Y-102437404D01*
X152406623Y-102448194D01*
X152399393Y-102448194D01*
X152393847Y-102447883D01*
X152354271Y-102443424D01*
X152354267Y-102443424D01*
X152295825Y-102454482D01*
X152237020Y-102463344D01*
X152229934Y-102465531D01*
X152229804Y-102465110D01*
X152227695Y-102465804D01*
X152227840Y-102466219D01*
X152220834Y-102468670D01*
X152168233Y-102496471D01*
X152114664Y-102522268D01*
X152108535Y-102526447D01*
X152108290Y-102526087D01*
X152106474Y-102527375D01*
X152106733Y-102527726D01*
X152100764Y-102532131D01*
X152058706Y-102574189D01*
X152015111Y-102614639D01*
X152010485Y-102620440D01*
X152010141Y-102620166D01*
X152001603Y-102631291D01*
X151502901Y-103129993D01*
X151498760Y-103133694D01*
X151467631Y-103158519D01*
X151434119Y-103207671D01*
X151398807Y-103255516D01*
X151395342Y-103262074D01*
X151394953Y-103261868D01*
X151393950Y-103263855D01*
X151394346Y-103264046D01*
X151391128Y-103270727D01*
X151373592Y-103327577D01*
X151353955Y-103383697D01*
X151352576Y-103390987D01*
X151352144Y-103390905D01*
X151351771Y-103393100D01*
X151352205Y-103393166D01*
X151349995Y-103407833D01*
X151348527Y-103407611D01*
X151332193Y-103457885D01*
X151282693Y-103493849D01*
X151252100Y-103498694D01*
X151126601Y-103498694D01*
X151126600Y-103498695D01*
X151126600Y-104394694D01*
X151107693Y-104452885D01*
X151058193Y-104488849D01*
X151027600Y-104493694D01*
X150681100Y-104493694D01*
X150622909Y-104474787D01*
X150586945Y-104425287D01*
X150582100Y-104394694D01*
X150582100Y-104376325D01*
X150582099Y-104376312D01*
X150579466Y-104354628D01*
X150591221Y-104294583D01*
X150636024Y-104252914D01*
X150677744Y-104243694D01*
X150876599Y-104243694D01*
X150876600Y-104243693D01*
X150876600Y-103498695D01*
X150876599Y-103498694D01*
X150676975Y-103498694D01*
X150604053Y-103513200D01*
X150604050Y-103513201D01*
X150600269Y-103515728D01*
X150541381Y-103532334D01*
X150483978Y-103511154D01*
X150449987Y-103460279D01*
X150452391Y-103399141D01*
X150475265Y-103363408D01*
X151270405Y-102568268D01*
X151281664Y-102560197D01*
X151280905Y-102559191D01*
X151288221Y-102553665D01*
X151288228Y-102553662D01*
X151320632Y-102518115D01*
X151322186Y-102516487D01*
X151336174Y-102502501D01*
X151338181Y-102499569D01*
X151342440Y-102494194D01*
X151343470Y-102493064D01*
X151363916Y-102470637D01*
X151367465Y-102461474D01*
X151378106Y-102441286D01*
X151383656Y-102433185D01*
X151390955Y-102402147D01*
X151392977Y-102395618D01*
X151404500Y-102365877D01*
X151404500Y-102356052D01*
X151407129Y-102333387D01*
X151409379Y-102323823D01*
X151404975Y-102292250D01*
X151404500Y-102285403D01*
X151404500Y-101214165D01*
X151423407Y-101155974D01*
X151433496Y-101144161D01*
X152093661Y-100483996D01*
X152148178Y-100456219D01*
X152163665Y-100455000D01*
X152586846Y-100455000D01*
X152645037Y-100473907D01*
X152665388Y-100493733D01*
X152721835Y-100567296D01*
X152733718Y-100582782D01*
X152859159Y-100679036D01*
X152859160Y-100679036D01*
X152859161Y-100679037D01*
X152943234Y-100713861D01*
X153005238Y-100739544D01*
X153122809Y-100755022D01*
X153161999Y-100760182D01*
X153162000Y-100760182D01*
X153162001Y-100760182D01*
X153193352Y-100756054D01*
X153318762Y-100739544D01*
X153464841Y-100679036D01*
X153590282Y-100582782D01*
X153620025Y-100544019D01*
X153670447Y-100509364D01*
X153731611Y-100510965D01*
X153778221Y-100545499D01*
X153840545Y-100629945D01*
X153840553Y-100629953D01*
X153954240Y-100713858D01*
X153954246Y-100713861D01*
X154087615Y-100760529D01*
X154087624Y-100760531D01*
X154119271Y-100763499D01*
X154119276Y-100763500D01*
X154306999Y-100763500D01*
X154307000Y-100763499D01*
X154557000Y-100763499D01*
X154557001Y-100763500D01*
X154744724Y-100763500D01*
X154744728Y-100763499D01*
X154776375Y-100760531D01*
X154776384Y-100760529D01*
X154909753Y-100713861D01*
X154909759Y-100713858D01*
X155023446Y-100629953D01*
X155023453Y-100629946D01*
X155107358Y-100516259D01*
X155107361Y-100516253D01*
X155154029Y-100382884D01*
X155154031Y-100382875D01*
X155156999Y-100351228D01*
X155157000Y-100351223D01*
X155157000Y-100201001D01*
X155156999Y-100201000D01*
X154557001Y-100201000D01*
X154557000Y-100201001D01*
X154557000Y-100763499D01*
X154307000Y-100763499D01*
X154307000Y-100763498D01*
X154307000Y-99950999D01*
X154557000Y-99950999D01*
X154557001Y-99951000D01*
X155156999Y-99951000D01*
X155157000Y-99950999D01*
X155157000Y-99800776D01*
X155156999Y-99800771D01*
X155154031Y-99769124D01*
X155154029Y-99769115D01*
X155107361Y-99635746D01*
X155107358Y-99635740D01*
X155023453Y-99522053D01*
X155023446Y-99522046D01*
X154909759Y-99438141D01*
X154909753Y-99438138D01*
X154776384Y-99391470D01*
X154776375Y-99391468D01*
X154744728Y-99388500D01*
X154557001Y-99388500D01*
X154557000Y-99388501D01*
X154557000Y-99950999D01*
X154307000Y-99950999D01*
X154307000Y-99388500D01*
X154119271Y-99388500D01*
X154087624Y-99391468D01*
X154087615Y-99391470D01*
X153954246Y-99438138D01*
X153954240Y-99438141D01*
X153840553Y-99522046D01*
X153840546Y-99522053D01*
X153756641Y-99635740D01*
X153756639Y-99635744D01*
X153741651Y-99678578D01*
X153704585Y-99727258D01*
X153645985Y-99744854D01*
X153588233Y-99724645D01*
X153587940Y-99724421D01*
X153528196Y-99678578D01*
X153464841Y-99629964D01*
X153464840Y-99629963D01*
X153464838Y-99629962D01*
X153318766Y-99569457D01*
X153318759Y-99569455D01*
X153282428Y-99564672D01*
X153227203Y-99538330D01*
X153198009Y-99484558D01*
X153203887Y-99428637D01*
X153239044Y-99343762D01*
X153259682Y-99187000D01*
X153239044Y-99030238D01*
X153239042Y-99030233D01*
X153179873Y-98887385D01*
X153175072Y-98826389D01*
X153207042Y-98774220D01*
X153263570Y-98750805D01*
X153271337Y-98750500D01*
X156161166Y-98750500D01*
X156219357Y-98769407D01*
X156231170Y-98779496D01*
X156491497Y-99039823D01*
X156519274Y-99094340D01*
X156509703Y-99154772D01*
X156508807Y-99156489D01*
X156504770Y-99164041D01*
X156504766Y-99164052D01*
X156444699Y-99362065D01*
X156444698Y-99362070D01*
X156424417Y-99567996D01*
X156424417Y-99568003D01*
X156444698Y-99773929D01*
X156444699Y-99773934D01*
X156504768Y-99971954D01*
X156602316Y-100154452D01*
X156733585Y-100314404D01*
X156733590Y-100314410D01*
X156762838Y-100338413D01*
X156893547Y-100445683D01*
X156893548Y-100445683D01*
X156893550Y-100445685D01*
X157076046Y-100543232D01*
X157206440Y-100582786D01*
X157274065Y-100603300D01*
X157274070Y-100603301D01*
X157479997Y-100623583D01*
X157480000Y-100623583D01*
X157480003Y-100623583D01*
X157685929Y-100603301D01*
X157685934Y-100603300D01*
X157685934Y-100603299D01*
X157883954Y-100543232D01*
X158066450Y-100445685D01*
X158226410Y-100314410D01*
X158357685Y-100154450D01*
X158455232Y-99971954D01*
X158515300Y-99773934D01*
X158515301Y-99773929D01*
X158535583Y-99568003D01*
X158535583Y-99567996D01*
X158515301Y-99362070D01*
X158515300Y-99362065D01*
X158481506Y-99250662D01*
X158455232Y-99164046D01*
X158357685Y-98981550D01*
X158330004Y-98947821D01*
X158226414Y-98821595D01*
X158226410Y-98821590D01*
X158205753Y-98804637D01*
X158066452Y-98690316D01*
X157883954Y-98592768D01*
X157685934Y-98532699D01*
X157685929Y-98532698D01*
X157480003Y-98512417D01*
X157479997Y-98512417D01*
X157274070Y-98532698D01*
X157274065Y-98532699D01*
X157076052Y-98592766D01*
X157076049Y-98592767D01*
X157076046Y-98592768D01*
X157076044Y-98592768D01*
X157076041Y-98592770D01*
X157068489Y-98596807D01*
X157008255Y-98607558D01*
X156953206Y-98580852D01*
X156951823Y-98579497D01*
X156578741Y-98206414D01*
X156575822Y-98203229D01*
X156549456Y-98171806D01*
X156526818Y-98158736D01*
X156513918Y-98151288D01*
X156510288Y-98148975D01*
X156476684Y-98125446D01*
X156476679Y-98125443D01*
X156475224Y-98125054D01*
X156451348Y-98115164D01*
X156450045Y-98114411D01*
X156409652Y-98107289D01*
X156405436Y-98106354D01*
X156379153Y-98099312D01*
X156365807Y-98095736D01*
X156365806Y-98095736D01*
X156361381Y-98096123D01*
X156324926Y-98099312D01*
X156320626Y-98099500D01*
X152251188Y-98099500D01*
X152192997Y-98080593D01*
X152181184Y-98070504D01*
X152179198Y-98068518D01*
X152179198Y-98068517D01*
X152096483Y-97985802D01*
X152053081Y-97964584D01*
X151991395Y-97934427D01*
X151964139Y-97930456D01*
X151923260Y-97924500D01*
X150206740Y-97924500D01*
X150172673Y-97929463D01*
X150138604Y-97934427D01*
X150033518Y-97985801D01*
X149950801Y-98068518D01*
X149899427Y-98173604D01*
X149889500Y-98241743D01*
X149889500Y-98517166D01*
X149870593Y-98575357D01*
X149821093Y-98611321D01*
X149759907Y-98611321D01*
X149720496Y-98587170D01*
X149706496Y-98573170D01*
X149678719Y-98518653D01*
X149677500Y-98503166D01*
X149677500Y-97711833D01*
X149696407Y-97653642D01*
X149706496Y-97641830D01*
X149754128Y-97594198D01*
X149823821Y-97524505D01*
X149878335Y-97496729D01*
X149938767Y-97506300D01*
X149963822Y-97524503D01*
X150033517Y-97594198D01*
X150074948Y-97614452D01*
X150138604Y-97645572D01*
X150138605Y-97645572D01*
X150138607Y-97645573D01*
X150206740Y-97655500D01*
X150206743Y-97655500D01*
X151923257Y-97655500D01*
X151923260Y-97655500D01*
X151991393Y-97645573D01*
X152096483Y-97594198D01*
X152179198Y-97511483D01*
X152179198Y-97511480D01*
X152181184Y-97509496D01*
X152235701Y-97481719D01*
X152251188Y-97480500D01*
X155558626Y-97480500D01*
X155562926Y-97480687D01*
X155603807Y-97484264D01*
X155643452Y-97473640D01*
X155647650Y-97472710D01*
X155688045Y-97465588D01*
X155689345Y-97464838D01*
X155713236Y-97454942D01*
X155713464Y-97454880D01*
X155714684Y-97454554D01*
X155748303Y-97431012D01*
X155751911Y-97428714D01*
X155787455Y-97408194D01*
X155803672Y-97388865D01*
X155855562Y-97356441D01*
X155879513Y-97353500D01*
X156407546Y-97353500D01*
X156465737Y-97372407D01*
X156501701Y-97421907D01*
X156502267Y-97423709D01*
X156504768Y-97431953D01*
X156504769Y-97431956D01*
X156602316Y-97614452D01*
X156709959Y-97745615D01*
X156733590Y-97774410D01*
X156733595Y-97774414D01*
X156893547Y-97905683D01*
X156893548Y-97905683D01*
X156893550Y-97905685D01*
X157076046Y-98003232D01*
X157213996Y-98045078D01*
X157274065Y-98063300D01*
X157274070Y-98063301D01*
X157479997Y-98083583D01*
X157480000Y-98083583D01*
X157480003Y-98083583D01*
X157685929Y-98063301D01*
X157685934Y-98063300D01*
X157685933Y-98063299D01*
X157883954Y-98003232D01*
X158066450Y-97905685D01*
X158226410Y-97774410D01*
X158357685Y-97614450D01*
X158455232Y-97431954D01*
X158515300Y-97233934D01*
X158515301Y-97233929D01*
X158535583Y-97028003D01*
X158535583Y-97027996D01*
X158515301Y-96822070D01*
X158515300Y-96822065D01*
X158485759Y-96724682D01*
X158455232Y-96624046D01*
X158357685Y-96441550D01*
X158335482Y-96414496D01*
X158226414Y-96281595D01*
X158226410Y-96281590D01*
X158144373Y-96214264D01*
X158066452Y-96150316D01*
X157883954Y-96052768D01*
X157685934Y-95992699D01*
X157685929Y-95992698D01*
X157480003Y-95972417D01*
X157479997Y-95972417D01*
X157274070Y-95992698D01*
X157274065Y-95992699D01*
X157076045Y-96052768D01*
X156893547Y-96150316D01*
X156733595Y-96281585D01*
X156733585Y-96281595D01*
X156602316Y-96441547D01*
X156504769Y-96624043D01*
X156504768Y-96624045D01*
X156504768Y-96624046D01*
X156502282Y-96632241D01*
X156467297Y-96682436D01*
X156409488Y-96702481D01*
X156407546Y-96702500D01*
X155718366Y-96702500D01*
X155714065Y-96702312D01*
X155677726Y-96699133D01*
X155673194Y-96698737D01*
X155673189Y-96698737D01*
X155633570Y-96709353D01*
X155629354Y-96710288D01*
X155588956Y-96717411D01*
X155588948Y-96717414D01*
X155587640Y-96718170D01*
X155563786Y-96728051D01*
X155562324Y-96728442D01*
X155562316Y-96728446D01*
X155528716Y-96751972D01*
X155525080Y-96754288D01*
X155519397Y-96757569D01*
X155489544Y-96774805D01*
X155473325Y-96794136D01*
X155421437Y-96826559D01*
X155397487Y-96829500D01*
X152251188Y-96829500D01*
X152192997Y-96810593D01*
X152181184Y-96800504D01*
X152179198Y-96798518D01*
X152179198Y-96798517D01*
X152096483Y-96715802D01*
X152084437Y-96709913D01*
X151991395Y-96664427D01*
X151964139Y-96660456D01*
X151923260Y-96654500D01*
X150206740Y-96654500D01*
X150172673Y-96659463D01*
X150138604Y-96664427D01*
X150033518Y-96715801D01*
X150033517Y-96715801D01*
X150033517Y-96715802D01*
X149950802Y-96798517D01*
X149950801Y-96798518D01*
X149948816Y-96800504D01*
X149894299Y-96828281D01*
X149878812Y-96829500D01*
X149749363Y-96829500D01*
X149745062Y-96829312D01*
X149704193Y-96825737D01*
X149704189Y-96825737D01*
X149664570Y-96836353D01*
X149660354Y-96837288D01*
X149619956Y-96844411D01*
X149619948Y-96844414D01*
X149618640Y-96845170D01*
X149594786Y-96855051D01*
X149593324Y-96855442D01*
X149593314Y-96855447D01*
X149559716Y-96878971D01*
X149556075Y-96881290D01*
X149520545Y-96901804D01*
X149494180Y-96933225D01*
X149491262Y-96936409D01*
X149133419Y-97294253D01*
X149130234Y-97297171D01*
X149098807Y-97323542D01*
X149098806Y-97323544D01*
X149078292Y-97359075D01*
X149075972Y-97362716D01*
X149052446Y-97396316D01*
X149052442Y-97396324D01*
X149052051Y-97397786D01*
X149042170Y-97421640D01*
X149041414Y-97422948D01*
X149041410Y-97422960D01*
X149034287Y-97463349D01*
X149033353Y-97467564D01*
X149022736Y-97507187D01*
X149022736Y-97507193D01*
X149026312Y-97548072D01*
X149026500Y-97552373D01*
X149026500Y-98662625D01*
X149026312Y-98666927D01*
X149022736Y-98707807D01*
X149027065Y-98723964D01*
X149033354Y-98747436D01*
X149034289Y-98751652D01*
X149041411Y-98792045D01*
X149042164Y-98793348D01*
X149052054Y-98817224D01*
X149052443Y-98818679D01*
X149052446Y-98818684D01*
X149075971Y-98852281D01*
X149078292Y-98855924D01*
X149098806Y-98891455D01*
X149130224Y-98917818D01*
X149133410Y-98920737D01*
X149481670Y-99268996D01*
X149509447Y-99323513D01*
X149499876Y-99383945D01*
X149456611Y-99427210D01*
X149411666Y-99438000D01*
X149342334Y-99438000D01*
X149284143Y-99419093D01*
X149272330Y-99409004D01*
X148690496Y-98827170D01*
X148662719Y-98772653D01*
X148661500Y-98757166D01*
X148661500Y-97423968D01*
X148661687Y-97419671D01*
X148665263Y-97378797D01*
X148654638Y-97339148D01*
X148653713Y-97334969D01*
X148646588Y-97294559D01*
X148646588Y-97294558D01*
X148645840Y-97293263D01*
X148635942Y-97269371D01*
X148635554Y-97267920D01*
X148612022Y-97234313D01*
X148609707Y-97230678D01*
X148589193Y-97195148D01*
X148571927Y-97180660D01*
X148557771Y-97168782D01*
X148554594Y-97165870D01*
X147456983Y-96068260D01*
X149889500Y-96068260D01*
X149894647Y-96103587D01*
X149899427Y-96136395D01*
X149949831Y-96239496D01*
X149950802Y-96241483D01*
X150033517Y-96324198D01*
X150087285Y-96350483D01*
X150138604Y-96375572D01*
X150138605Y-96375572D01*
X150138607Y-96375573D01*
X150206740Y-96385500D01*
X150206743Y-96385500D01*
X151923257Y-96385500D01*
X151923260Y-96385500D01*
X151991393Y-96375573D01*
X152096483Y-96324198D01*
X152179198Y-96241483D01*
X152179198Y-96241480D01*
X152181184Y-96239496D01*
X152235701Y-96211719D01*
X152251188Y-96210500D01*
X156066626Y-96210500D01*
X156070926Y-96210687D01*
X156111807Y-96214264D01*
X156151452Y-96203640D01*
X156155650Y-96202710D01*
X156196045Y-96195588D01*
X156197345Y-96194838D01*
X156221236Y-96184942D01*
X156221464Y-96184880D01*
X156222684Y-96184554D01*
X156256303Y-96161012D01*
X156259911Y-96158714D01*
X156295455Y-96138194D01*
X156321827Y-96106763D01*
X156324726Y-96103598D01*
X156951824Y-95476501D01*
X157006340Y-95448725D01*
X157066772Y-95458296D01*
X157068463Y-95459178D01*
X157076046Y-95463232D01*
X157227977Y-95509319D01*
X157274065Y-95523300D01*
X157274070Y-95523301D01*
X157479997Y-95543583D01*
X157480000Y-95543583D01*
X157480003Y-95543583D01*
X157685929Y-95523301D01*
X157685934Y-95523300D01*
X157685934Y-95523299D01*
X157883954Y-95463232D01*
X158066450Y-95365685D01*
X158226410Y-95234410D01*
X158357685Y-95074450D01*
X158455232Y-94891954D01*
X158515300Y-94693934D01*
X158515301Y-94693929D01*
X158535583Y-94488003D01*
X158535583Y-94487996D01*
X158515301Y-94282070D01*
X158515300Y-94282065D01*
X158497078Y-94221997D01*
X158455232Y-94084046D01*
X158357685Y-93901550D01*
X158226410Y-93741590D01*
X158226404Y-93741585D01*
X158066452Y-93610316D01*
X157883954Y-93512768D01*
X157685934Y-93452699D01*
X157685929Y-93452698D01*
X157480003Y-93432417D01*
X157479997Y-93432417D01*
X157274070Y-93452698D01*
X157274065Y-93452699D01*
X157076045Y-93512768D01*
X156893547Y-93610316D01*
X156733595Y-93741585D01*
X156733585Y-93741595D01*
X156602316Y-93901547D01*
X156504768Y-94084045D01*
X156444699Y-94282065D01*
X156444698Y-94282070D01*
X156424417Y-94487996D01*
X156424417Y-94488003D01*
X156444698Y-94693929D01*
X156444699Y-94693934D01*
X156504768Y-94891954D01*
X156504770Y-94891959D01*
X156508803Y-94899504D01*
X156519559Y-94959737D01*
X156492857Y-95014788D01*
X156491497Y-95016175D01*
X155977171Y-95530503D01*
X155922654Y-95558281D01*
X155907167Y-95559500D01*
X152251188Y-95559500D01*
X152192997Y-95540593D01*
X152181184Y-95530504D01*
X152179198Y-95528518D01*
X152179198Y-95528517D01*
X152096483Y-95445802D01*
X152053081Y-95424584D01*
X151991395Y-95394427D01*
X151964139Y-95390456D01*
X151923260Y-95384500D01*
X150206740Y-95384500D01*
X150172673Y-95389463D01*
X150138604Y-95394427D01*
X150033518Y-95445801D01*
X149950801Y-95528518D01*
X149899427Y-95633604D01*
X149899427Y-95633607D01*
X149889500Y-95701740D01*
X149889500Y-96068260D01*
X147456983Y-96068260D01*
X147319496Y-95930773D01*
X147291719Y-95876256D01*
X147290500Y-95860769D01*
X147290500Y-95701743D01*
X147290500Y-95701740D01*
X147280573Y-95633607D01*
X147229198Y-95528517D01*
X147146483Y-95445802D01*
X147103081Y-95424584D01*
X147041395Y-95394427D01*
X147014139Y-95390456D01*
X146973260Y-95384500D01*
X145256740Y-95384500D01*
X145222673Y-95389463D01*
X145188604Y-95394427D01*
X145083518Y-95445801D01*
X145083517Y-95445801D01*
X145083517Y-95445802D01*
X145000802Y-95528517D01*
X145000801Y-95528518D01*
X144998816Y-95530504D01*
X144944299Y-95558281D01*
X144928812Y-95559500D01*
X141272835Y-95559500D01*
X141214644Y-95540593D01*
X141202831Y-95530504D01*
X140688502Y-95016175D01*
X140660725Y-94961658D01*
X140670296Y-94901226D01*
X140671154Y-94899582D01*
X140675232Y-94891954D01*
X140735300Y-94693934D01*
X140735301Y-94693929D01*
X140755583Y-94488003D01*
X140755583Y-94487996D01*
X140735301Y-94282070D01*
X140735300Y-94282065D01*
X140717078Y-94221996D01*
X140675232Y-94084046D01*
X140577685Y-93901550D01*
X140446410Y-93741590D01*
X140446404Y-93741585D01*
X140286452Y-93610316D01*
X140103954Y-93512768D01*
X139905934Y-93452699D01*
X139905929Y-93452698D01*
X139700003Y-93432417D01*
X139699997Y-93432417D01*
X139494070Y-93452698D01*
X139494065Y-93452699D01*
X139296045Y-93512768D01*
X139113547Y-93610316D01*
X138953595Y-93741585D01*
X138953585Y-93741595D01*
X138822316Y-93901547D01*
X138724768Y-94084045D01*
X138664699Y-94282065D01*
X138664698Y-94282070D01*
X138644417Y-94487996D01*
X138644417Y-94488003D01*
X138664698Y-94693929D01*
X138664699Y-94693934D01*
X138724768Y-94891954D01*
X138822316Y-95074452D01*
X138884453Y-95150166D01*
X138953590Y-95234410D01*
X138953595Y-95234414D01*
X139113547Y-95365683D01*
X139113548Y-95365683D01*
X139113550Y-95365685D01*
X139296046Y-95463232D01*
X139433997Y-95505078D01*
X139494065Y-95523300D01*
X139494070Y-95523301D01*
X139699997Y-95543583D01*
X139700000Y-95543583D01*
X139700003Y-95543583D01*
X139905929Y-95523301D01*
X139905934Y-95523300D01*
X139905933Y-95523299D01*
X140103954Y-95463232D01*
X140111499Y-95459198D01*
X140171729Y-95448439D01*
X140226782Y-95475137D01*
X140228175Y-95476502D01*
X140650169Y-95898496D01*
X140677946Y-95953013D01*
X140668375Y-96013445D01*
X140625110Y-96056710D01*
X140580165Y-96067500D01*
X140351374Y-96067500D01*
X140347073Y-96067312D01*
X140306193Y-96063736D01*
X140306187Y-96063736D01*
X140266564Y-96074353D01*
X140262349Y-96075287D01*
X140213429Y-96083915D01*
X140212968Y-96081302D01*
X140165121Y-96082963D01*
X140145760Y-96075114D01*
X140144336Y-96074353D01*
X140103954Y-96052768D01*
X140103953Y-96052768D01*
X139905934Y-95992699D01*
X139905929Y-95992698D01*
X139700003Y-95972417D01*
X139699997Y-95972417D01*
X139494070Y-95992698D01*
X139494065Y-95992699D01*
X139296045Y-96052768D01*
X139113547Y-96150316D01*
X138953595Y-96281585D01*
X138953585Y-96281595D01*
X138822316Y-96441547D01*
X138724768Y-96624045D01*
X138664699Y-96822065D01*
X138664698Y-96822070D01*
X138644417Y-97027996D01*
X138644417Y-97028003D01*
X138664698Y-97233929D01*
X138664699Y-97233934D01*
X138703228Y-97360945D01*
X138724768Y-97431954D01*
X138728802Y-97439501D01*
X138739560Y-97499732D01*
X138712860Y-97554785D01*
X138711497Y-97556175D01*
X138306413Y-97961259D01*
X138303229Y-97964176D01*
X138271807Y-97990542D01*
X138271806Y-97990544D01*
X138251292Y-98026075D01*
X138248972Y-98029716D01*
X138225446Y-98063316D01*
X138225442Y-98063324D01*
X138225051Y-98064786D01*
X138215170Y-98088640D01*
X138214414Y-98089948D01*
X138214410Y-98089960D01*
X138207287Y-98130349D01*
X138206353Y-98134564D01*
X138195736Y-98174187D01*
X138195736Y-98174193D01*
X138199312Y-98215072D01*
X138199500Y-98219373D01*
X138199500Y-102061021D01*
X138199312Y-102065323D01*
X138196264Y-102100173D01*
X138195736Y-102106202D01*
X138206354Y-102145832D01*
X138207289Y-102150048D01*
X138214411Y-102190441D01*
X138215164Y-102191744D01*
X138225054Y-102215620D01*
X138225443Y-102217075D01*
X138225446Y-102217080D01*
X138248581Y-102250121D01*
X138248971Y-102250677D01*
X138251288Y-102254314D01*
X138265526Y-102278974D01*
X138271806Y-102289851D01*
X138303224Y-102316214D01*
X138306410Y-102319133D01*
X140176504Y-104189226D01*
X140204281Y-104243743D01*
X140205500Y-104259230D01*
X140205500Y-105065746D01*
X140205501Y-105065758D01*
X140217132Y-105124227D01*
X140217134Y-105124233D01*
X140260904Y-105189738D01*
X140261448Y-105190552D01*
X140327769Y-105234867D01*
X140371366Y-105243539D01*
X140386241Y-105246498D01*
X140386246Y-105246498D01*
X140386252Y-105246500D01*
X140386253Y-105246500D01*
X141125747Y-105246500D01*
X141125748Y-105246500D01*
X141161184Y-105239451D01*
X141221945Y-105246641D01*
X141266876Y-105288172D01*
X141279500Y-105336548D01*
X141279500Y-108155165D01*
X141260593Y-108213356D01*
X141250504Y-108225169D01*
X140537413Y-108938259D01*
X140534228Y-108941176D01*
X140502807Y-108967542D01*
X140502806Y-108967544D01*
X140482292Y-109003075D01*
X140479972Y-109006716D01*
X140456446Y-109040316D01*
X140456442Y-109040324D01*
X140456051Y-109041786D01*
X140446170Y-109065640D01*
X140445414Y-109066948D01*
X140445410Y-109066960D01*
X140438287Y-109107349D01*
X140437353Y-109111564D01*
X140426736Y-109151187D01*
X140426736Y-109151193D01*
X140430312Y-109192072D01*
X140430500Y-109196373D01*
X140430500Y-110055451D01*
X140411593Y-110113642D01*
X140362093Y-110149606D01*
X140350816Y-110152548D01*
X140327772Y-110157132D01*
X140327766Y-110157134D01*
X140261451Y-110201445D01*
X140261445Y-110201451D01*
X140217134Y-110267766D01*
X140217132Y-110267772D01*
X140205501Y-110326241D01*
X140205500Y-110326253D01*
X140205500Y-111565746D01*
X140205501Y-111565758D01*
X140219035Y-111633793D01*
X140215037Y-111634588D01*
X140218288Y-111676639D01*
X140186247Y-111728763D01*
X140129686Y-111752100D01*
X140122056Y-111752394D01*
X138592430Y-111752394D01*
X138587575Y-111752155D01*
X138463237Y-111739908D01*
X138444204Y-111736122D01*
X138331646Y-111701978D01*
X138313716Y-111694551D01*
X138209980Y-111639103D01*
X138193842Y-111628320D01*
X138102918Y-111553699D01*
X138089196Y-111539977D01*
X138014576Y-111449053D01*
X138014572Y-111449047D01*
X138003795Y-111432918D01*
X137948344Y-111329175D01*
X137940921Y-111311253D01*
X137922176Y-111249459D01*
X137906776Y-111198689D01*
X137902990Y-111179655D01*
X137893251Y-111080770D01*
X137890737Y-111055243D01*
X137890500Y-111050405D01*
X137890501Y-111005301D01*
X137890500Y-111005297D01*
X137890500Y-92817746D01*
X138649500Y-92817746D01*
X138649501Y-92817758D01*
X138661132Y-92876227D01*
X138661134Y-92876233D01*
X138705445Y-92942548D01*
X138705448Y-92942552D01*
X138705451Y-92942554D01*
X138758853Y-92978237D01*
X138771769Y-92986867D01*
X138816231Y-92995711D01*
X138830241Y-92998498D01*
X138830246Y-92998498D01*
X138830252Y-92998500D01*
X138830253Y-92998500D01*
X140569747Y-92998500D01*
X140569748Y-92998500D01*
X140628231Y-92986867D01*
X140694552Y-92942552D01*
X140738867Y-92876231D01*
X140750500Y-92817748D01*
X140750500Y-92497500D01*
X140769407Y-92439309D01*
X140818907Y-92403345D01*
X140849500Y-92398500D01*
X144915500Y-92398500D01*
X144973691Y-92417407D01*
X145009655Y-92466907D01*
X145014500Y-92497500D01*
X145014500Y-92817746D01*
X145014501Y-92817758D01*
X145026132Y-92876227D01*
X145026134Y-92876233D01*
X145070445Y-92942548D01*
X145070448Y-92942552D01*
X145070451Y-92942554D01*
X145123853Y-92978237D01*
X145136769Y-92986867D01*
X145181231Y-92995711D01*
X145195241Y-92998498D01*
X145195246Y-92998498D01*
X145195252Y-92998500D01*
X145515500Y-92998500D01*
X145573691Y-93017407D01*
X145609655Y-93066907D01*
X145614500Y-93097500D01*
X145614500Y-94015500D01*
X145595593Y-94073691D01*
X145546093Y-94109655D01*
X145515500Y-94114500D01*
X145256740Y-94114500D01*
X145222673Y-94119463D01*
X145188604Y-94124427D01*
X145083518Y-94175801D01*
X145000801Y-94258518D01*
X144949427Y-94363604D01*
X144949427Y-94363607D01*
X144939500Y-94431740D01*
X144939500Y-94798260D01*
X144946118Y-94843681D01*
X144949427Y-94866395D01*
X144995060Y-94959737D01*
X145000802Y-94971483D01*
X145083517Y-95054198D01*
X145124948Y-95074452D01*
X145188604Y-95105572D01*
X145188605Y-95105572D01*
X145188607Y-95105573D01*
X145256740Y-95115500D01*
X145256743Y-95115500D01*
X146973257Y-95115500D01*
X146973260Y-95115500D01*
X147041393Y-95105573D01*
X147146483Y-95054198D01*
X147229198Y-94971483D01*
X147280573Y-94866393D01*
X147290500Y-94798260D01*
X147290500Y-94796485D01*
X149840001Y-94796485D01*
X149854833Y-94890141D01*
X149854836Y-94890151D01*
X149912358Y-95003043D01*
X150001956Y-95092641D01*
X150114848Y-95150163D01*
X150114852Y-95150164D01*
X150208515Y-95164999D01*
X150939998Y-95164999D01*
X150940000Y-95164998D01*
X151190000Y-95164998D01*
X151190001Y-95164999D01*
X151921483Y-95164999D01*
X151921485Y-95164998D01*
X152015141Y-95150166D01*
X152015151Y-95150163D01*
X152128043Y-95092641D01*
X152217641Y-95003043D01*
X152275163Y-94890151D01*
X152275164Y-94890147D01*
X152290000Y-94796484D01*
X152290000Y-94740001D01*
X152289999Y-94740000D01*
X151190001Y-94740000D01*
X151190000Y-94740001D01*
X151190000Y-95164998D01*
X150940000Y-95164998D01*
X150940000Y-94740001D01*
X150939999Y-94740000D01*
X149840002Y-94740000D01*
X149840001Y-94740001D01*
X149840001Y-94796485D01*
X147290500Y-94796485D01*
X147290500Y-94489999D01*
X149840000Y-94489999D01*
X149840001Y-94490000D01*
X150939999Y-94490000D01*
X150940000Y-94489999D01*
X151190000Y-94489999D01*
X151190001Y-94490000D01*
X152289998Y-94490000D01*
X152289999Y-94489999D01*
X152289999Y-94433516D01*
X152289998Y-94433514D01*
X152275166Y-94339858D01*
X152275163Y-94339848D01*
X152217641Y-94226956D01*
X152128043Y-94137358D01*
X152015151Y-94079836D01*
X152015147Y-94079835D01*
X151921484Y-94065000D01*
X151190001Y-94065000D01*
X151190000Y-94065001D01*
X151190000Y-94489999D01*
X150940000Y-94489999D01*
X150940000Y-94065001D01*
X150939999Y-94065000D01*
X150208516Y-94065000D01*
X150208514Y-94065001D01*
X150114858Y-94079833D01*
X150114848Y-94079836D01*
X150001956Y-94137358D01*
X149912358Y-94226956D01*
X149854836Y-94339848D01*
X149854835Y-94339852D01*
X149840000Y-94433515D01*
X149840000Y-94489999D01*
X147290500Y-94489999D01*
X147290500Y-94431740D01*
X147280573Y-94363607D01*
X147229198Y-94258517D01*
X147146483Y-94175802D01*
X147146481Y-94175801D01*
X147041395Y-94124427D01*
X147014139Y-94120456D01*
X146973260Y-94114500D01*
X146973257Y-94114500D01*
X146614500Y-94114500D01*
X146556309Y-94095593D01*
X146520345Y-94046093D01*
X146515500Y-94015500D01*
X146515500Y-93097500D01*
X146534407Y-93039309D01*
X146583907Y-93003345D01*
X146614500Y-92998500D01*
X146934747Y-92998500D01*
X146934748Y-92998500D01*
X146993231Y-92986867D01*
X147059552Y-92942552D01*
X147103867Y-92876231D01*
X147115500Y-92817748D01*
X147115500Y-91819000D01*
X147511871Y-91819000D01*
X147519097Y-91896989D01*
X147574887Y-92093070D01*
X147665750Y-92275548D01*
X147665755Y-92275557D01*
X147788608Y-92438240D01*
X147939266Y-92575582D01*
X148112581Y-92682895D01*
X148112586Y-92682898D01*
X148302683Y-92756541D01*
X148479999Y-92789687D01*
X148480000Y-92789686D01*
X148480000Y-92293000D01*
X148498907Y-92234809D01*
X148548407Y-92198845D01*
X148579000Y-92194000D01*
X148631000Y-92194000D01*
X148689191Y-92212907D01*
X148725155Y-92262407D01*
X148730000Y-92293000D01*
X148730000Y-92789687D01*
X148907316Y-92756541D01*
X149097413Y-92682898D01*
X149097418Y-92682895D01*
X149270733Y-92575582D01*
X149421391Y-92438240D01*
X149544244Y-92275557D01*
X149544249Y-92275548D01*
X149635112Y-92093070D01*
X149676387Y-91948003D01*
X150089417Y-91948003D01*
X150109698Y-92153929D01*
X150109699Y-92153934D01*
X150169768Y-92351954D01*
X150267316Y-92534452D01*
X150389140Y-92682895D01*
X150398590Y-92694410D01*
X150398595Y-92694414D01*
X150558547Y-92825683D01*
X150558548Y-92825683D01*
X150558550Y-92825685D01*
X150741046Y-92923232D01*
X150878997Y-92965078D01*
X150939065Y-92983300D01*
X150939070Y-92983301D01*
X151144997Y-93003583D01*
X151145000Y-93003583D01*
X151145003Y-93003583D01*
X151350929Y-92983301D01*
X151350934Y-92983300D01*
X151367611Y-92978241D01*
X151548954Y-92923232D01*
X151731450Y-92825685D01*
X151735180Y-92822624D01*
X156380000Y-92822624D01*
X156394506Y-92895546D01*
X156394507Y-92895548D01*
X156449758Y-92978237D01*
X156449762Y-92978241D01*
X156532451Y-93033492D01*
X156532453Y-93033493D01*
X156605375Y-93047999D01*
X156605377Y-93048000D01*
X157354999Y-93048000D01*
X157355000Y-93047999D01*
X157355000Y-92547000D01*
X157373907Y-92488809D01*
X157423407Y-92452845D01*
X157454000Y-92448000D01*
X157506000Y-92448000D01*
X157564191Y-92466907D01*
X157600155Y-92516407D01*
X157605000Y-92547000D01*
X157605000Y-93047999D01*
X157605001Y-93048000D01*
X158354623Y-93048000D01*
X158354624Y-93047999D01*
X158427546Y-93033493D01*
X158427548Y-93033492D01*
X158510237Y-92978241D01*
X158510241Y-92978237D01*
X158565492Y-92895548D01*
X158565493Y-92895546D01*
X158579999Y-92822624D01*
X158580000Y-92822622D01*
X158580000Y-92073001D01*
X158579999Y-92073000D01*
X158079000Y-92073000D01*
X158020809Y-92054093D01*
X157984845Y-92004593D01*
X157980000Y-91974000D01*
X157980000Y-91922000D01*
X157998907Y-91863809D01*
X158048407Y-91827845D01*
X158079000Y-91823000D01*
X158579999Y-91823000D01*
X158580000Y-91822999D01*
X158580000Y-91073377D01*
X158579999Y-91073375D01*
X158565493Y-91000453D01*
X158565492Y-91000451D01*
X158510241Y-90917762D01*
X158510237Y-90917758D01*
X158427548Y-90862507D01*
X158427546Y-90862506D01*
X158354624Y-90848000D01*
X157605000Y-90848000D01*
X157605000Y-91349000D01*
X157586093Y-91407191D01*
X157536593Y-91443155D01*
X157506000Y-91448000D01*
X157454000Y-91448000D01*
X157395809Y-91429093D01*
X157359845Y-91379593D01*
X157355000Y-91349000D01*
X157355000Y-90848000D01*
X156605375Y-90848000D01*
X156532453Y-90862506D01*
X156532451Y-90862507D01*
X156449762Y-90917758D01*
X156449758Y-90917762D01*
X156394507Y-91000451D01*
X156394506Y-91000453D01*
X156380000Y-91073375D01*
X156380000Y-91822999D01*
X156380001Y-91823000D01*
X156881000Y-91823000D01*
X156939191Y-91841907D01*
X156975155Y-91891407D01*
X156980000Y-91922000D01*
X156980000Y-91974000D01*
X156961093Y-92032191D01*
X156911593Y-92068155D01*
X156881000Y-92073000D01*
X156380001Y-92073000D01*
X156380000Y-92073001D01*
X156380000Y-92822624D01*
X151735180Y-92822624D01*
X151891410Y-92694410D01*
X152022685Y-92534450D01*
X152120232Y-92351954D01*
X152180300Y-92153934D01*
X152180301Y-92153929D01*
X152200583Y-91948003D01*
X152200583Y-91947996D01*
X152180301Y-91742070D01*
X152180300Y-91742065D01*
X152142423Y-91617202D01*
X152120232Y-91544046D01*
X152022685Y-91361550D01*
X151891410Y-91201590D01*
X151859123Y-91175093D01*
X151731452Y-91070316D01*
X151548954Y-90972768D01*
X151350934Y-90912699D01*
X151350929Y-90912698D01*
X151145003Y-90892417D01*
X151144997Y-90892417D01*
X150939070Y-90912698D01*
X150939065Y-90912699D01*
X150741045Y-90972768D01*
X150558547Y-91070316D01*
X150398595Y-91201585D01*
X150398585Y-91201595D01*
X150267316Y-91361547D01*
X150169768Y-91544045D01*
X150109699Y-91742065D01*
X150109698Y-91742070D01*
X150089417Y-91947996D01*
X150089417Y-91948003D01*
X149676387Y-91948003D01*
X149690902Y-91896989D01*
X149698129Y-91819000D01*
X149204000Y-91819000D01*
X149145809Y-91800093D01*
X149109845Y-91750593D01*
X149105000Y-91720000D01*
X149105000Y-91668000D01*
X149123907Y-91609809D01*
X149173407Y-91573845D01*
X149204000Y-91569000D01*
X149698129Y-91569000D01*
X149690902Y-91491010D01*
X149635112Y-91294929D01*
X149544249Y-91112451D01*
X149544244Y-91112442D01*
X149421391Y-90949759D01*
X149270733Y-90812417D01*
X149097418Y-90705104D01*
X149097413Y-90705101D01*
X148907316Y-90631458D01*
X148730000Y-90598311D01*
X148730000Y-91095000D01*
X148711093Y-91153191D01*
X148661593Y-91189155D01*
X148631000Y-91194000D01*
X148579000Y-91194000D01*
X148520809Y-91175093D01*
X148484845Y-91125593D01*
X148480000Y-91095000D01*
X148480000Y-90598311D01*
X148479999Y-90598311D01*
X148302683Y-90631458D01*
X148112586Y-90705101D01*
X148112581Y-90705104D01*
X147939266Y-90812417D01*
X147788608Y-90949759D01*
X147665755Y-91112442D01*
X147665750Y-91112451D01*
X147574887Y-91294929D01*
X147519097Y-91491010D01*
X147511871Y-91569000D01*
X148006000Y-91569000D01*
X148064191Y-91587907D01*
X148100155Y-91637407D01*
X148105000Y-91668000D01*
X148105000Y-91720000D01*
X148086093Y-91778191D01*
X148036593Y-91814155D01*
X148006000Y-91819000D01*
X147511871Y-91819000D01*
X147115500Y-91819000D01*
X147115500Y-91078252D01*
X147113921Y-91070316D01*
X147110928Y-91055266D01*
X147103867Y-91019769D01*
X147059552Y-90953448D01*
X147059548Y-90953445D01*
X146993233Y-90909134D01*
X146993231Y-90909133D01*
X146993228Y-90909132D01*
X146993227Y-90909132D01*
X146934758Y-90897501D01*
X146934748Y-90897500D01*
X145195252Y-90897500D01*
X145195251Y-90897500D01*
X145195241Y-90897501D01*
X145136772Y-90909132D01*
X145136766Y-90909134D01*
X145070451Y-90953445D01*
X145070445Y-90953451D01*
X145026134Y-91019766D01*
X145026132Y-91019772D01*
X145014501Y-91078241D01*
X145014500Y-91078253D01*
X145014500Y-91398500D01*
X144995593Y-91456691D01*
X144946093Y-91492655D01*
X144915500Y-91497500D01*
X140849500Y-91497500D01*
X140791309Y-91478593D01*
X140755345Y-91429093D01*
X140750500Y-91398500D01*
X140750500Y-91078253D01*
X140750498Y-91078241D01*
X140745928Y-91055266D01*
X140738867Y-91019769D01*
X140694552Y-90953448D01*
X140694548Y-90953445D01*
X140628233Y-90909134D01*
X140628231Y-90909133D01*
X140628228Y-90909132D01*
X140628227Y-90909132D01*
X140569758Y-90897501D01*
X140569748Y-90897500D01*
X138830252Y-90897500D01*
X138830251Y-90897500D01*
X138830241Y-90897501D01*
X138771772Y-90909132D01*
X138771766Y-90909134D01*
X138705451Y-90953445D01*
X138705445Y-90953451D01*
X138661134Y-91019766D01*
X138661132Y-91019772D01*
X138649501Y-91078241D01*
X138649500Y-91078253D01*
X138649500Y-92817746D01*
X137890500Y-92817746D01*
X137890500Y-91055322D01*
X137890739Y-91050468D01*
X137902985Y-90926136D01*
X137906771Y-90907102D01*
X137920299Y-90862506D01*
X137940917Y-90794537D01*
X137948340Y-90776616D01*
X138003793Y-90672872D01*
X138014574Y-90656738D01*
X138035321Y-90631458D01*
X138089201Y-90565805D01*
X138102908Y-90552098D01*
X138193852Y-90477463D01*
X138209970Y-90466694D01*
X138313727Y-90411236D01*
X138331636Y-90403818D01*
X138444206Y-90369670D01*
X138463234Y-90365885D01*
X138587650Y-90353631D01*
X138592494Y-90353394D01*
X138637595Y-90353394D01*
X158542405Y-90353394D01*
X158587569Y-90353394D01*
X158592424Y-90353633D01*
G37*
%TD.AperFunction*%
%TA.AperFunction,Conductor*%
G36*
X141979750Y-108530758D02*
G01*
X142019079Y-108577629D01*
X142026287Y-108614714D01*
X142026287Y-109283010D01*
X142007380Y-109341201D01*
X141987555Y-109361552D01*
X141901163Y-109427843D01*
X141901156Y-109427850D01*
X141804905Y-109553287D01*
X141804905Y-109553288D01*
X141744400Y-109699360D01*
X141744398Y-109699368D01*
X141723761Y-109856126D01*
X141723761Y-109856127D01*
X141744398Y-110012885D01*
X141744400Y-110012893D01*
X141804905Y-110158965D01*
X141804905Y-110158966D01*
X141888395Y-110267772D01*
X141901161Y-110284409D01*
X142026602Y-110380663D01*
X142026603Y-110380663D01*
X142026604Y-110380664D01*
X142172676Y-110441169D01*
X142172681Y-110441171D01*
X142290252Y-110456649D01*
X142329442Y-110461809D01*
X142329443Y-110461809D01*
X142329444Y-110461809D01*
X142360795Y-110457681D01*
X142486205Y-110441171D01*
X142568614Y-110407035D01*
X142629611Y-110402235D01*
X142681780Y-110434205D01*
X142705195Y-110490733D01*
X142705500Y-110498500D01*
X142705500Y-111565746D01*
X142705501Y-111565758D01*
X142719035Y-111633793D01*
X142715037Y-111634588D01*
X142718288Y-111676639D01*
X142686247Y-111728763D01*
X142629686Y-111752100D01*
X142622056Y-111752394D01*
X141389944Y-111752394D01*
X141331753Y-111733487D01*
X141295789Y-111683987D01*
X141295789Y-111634354D01*
X141292965Y-111633793D01*
X141306498Y-111565758D01*
X141306500Y-111565746D01*
X141306500Y-110326253D01*
X141306498Y-110326241D01*
X141303711Y-110312231D01*
X141294867Y-110267769D01*
X141250552Y-110201448D01*
X141250548Y-110201445D01*
X141184233Y-110157134D01*
X141184231Y-110157133D01*
X141184228Y-110157132D01*
X141184227Y-110157132D01*
X141161184Y-110152548D01*
X141107800Y-110122650D01*
X141082186Y-110067085D01*
X141081500Y-110055451D01*
X141081500Y-109355834D01*
X141100407Y-109297643D01*
X141110496Y-109285830D01*
X141823589Y-108572737D01*
X141826775Y-108569818D01*
X141863652Y-108538875D01*
X141920382Y-108515955D01*
X141979750Y-108530758D01*
G37*
%TD.AperFunction*%
%TA.AperFunction,Conductor*%
G36*
X149318679Y-105963401D02*
G01*
X149347840Y-105983887D01*
X149348935Y-105982652D01*
X149353416Y-105986622D01*
X149353417Y-105986623D01*
X149363363Y-105995434D01*
X149480747Y-106099428D01*
X149503107Y-106111163D01*
X149545846Y-106154947D01*
X149556100Y-106198823D01*
X149556100Y-108088563D01*
X149537193Y-108146754D01*
X149503111Y-108176221D01*
X149480752Y-108187956D01*
X149353418Y-108300763D01*
X149353416Y-108300766D01*
X149256782Y-108440764D01*
X149196460Y-108599822D01*
X149181100Y-108726312D01*
X149181100Y-109611075D01*
X149191822Y-109699368D01*
X149196460Y-109737566D01*
X149256782Y-109896624D01*
X149353417Y-110036623D01*
X149480748Y-110149428D01*
X149631375Y-110228484D01*
X149796544Y-110269194D01*
X149796547Y-110269194D01*
X149966653Y-110269194D01*
X149966656Y-110269194D01*
X150131825Y-110228484D01*
X150282452Y-110149428D01*
X150409783Y-110036623D01*
X150506418Y-109896624D01*
X150566740Y-109737566D01*
X150582100Y-109611066D01*
X150582100Y-109593194D01*
X150601007Y-109535003D01*
X150650507Y-109499039D01*
X150681100Y-109494194D01*
X157722100Y-109494194D01*
X157780291Y-109513101D01*
X157816255Y-109562601D01*
X157821100Y-109593194D01*
X157821100Y-109611075D01*
X157831822Y-109699368D01*
X157836460Y-109737566D01*
X157896782Y-109896624D01*
X157993417Y-110036623D01*
X158120748Y-110149428D01*
X158271375Y-110228484D01*
X158436544Y-110269194D01*
X158436547Y-110269194D01*
X158606653Y-110269194D01*
X158606656Y-110269194D01*
X158771825Y-110228484D01*
X158922452Y-110149428D01*
X159049783Y-110036623D01*
X159109026Y-109950795D01*
X159157641Y-109913647D01*
X159218809Y-109912169D01*
X159269163Y-109946926D01*
X159289471Y-110004643D01*
X159289500Y-110007035D01*
X159289500Y-111001962D01*
X159289499Y-111001980D01*
X159289499Y-111050467D01*
X159289261Y-111055322D01*
X159277015Y-111179657D01*
X159273229Y-111198691D01*
X159239085Y-111311253D01*
X159231658Y-111329185D01*
X159176211Y-111432918D01*
X159165430Y-111449053D01*
X159090808Y-111539982D01*
X159077084Y-111553706D01*
X158986159Y-111628327D01*
X158970022Y-111639109D01*
X158866287Y-111694556D01*
X158848357Y-111701983D01*
X158735795Y-111736128D01*
X158716762Y-111739914D01*
X158592486Y-111752155D01*
X158587631Y-111752394D01*
X146389944Y-111752394D01*
X146331753Y-111733487D01*
X146295789Y-111683987D01*
X146295789Y-111634354D01*
X146292965Y-111633793D01*
X146306498Y-111565758D01*
X146306500Y-111565746D01*
X146306500Y-110326253D01*
X146306498Y-110326241D01*
X146303711Y-110312231D01*
X146294867Y-110267769D01*
X146250552Y-110201448D01*
X146213699Y-110176823D01*
X146175821Y-110128774D01*
X146173419Y-110067636D01*
X146198696Y-110024507D01*
X147720973Y-108502229D01*
X147775488Y-108474454D01*
X147803891Y-108474082D01*
X147883939Y-108484621D01*
X148040701Y-108463983D01*
X148186780Y-108403475D01*
X148312221Y-108307221D01*
X148408475Y-108181780D01*
X148468983Y-108035701D01*
X148489621Y-107878939D01*
X148486790Y-107857439D01*
X148472030Y-107745325D01*
X148468983Y-107722177D01*
X148435438Y-107641193D01*
X148408476Y-107576100D01*
X148408476Y-107576099D01*
X148312225Y-107450662D01*
X148312224Y-107450661D01*
X148312221Y-107450657D01*
X148312216Y-107450653D01*
X148312215Y-107450652D01*
X148241043Y-107396040D01*
X148186780Y-107354403D01*
X148186779Y-107354402D01*
X148186777Y-107354401D01*
X148081427Y-107310764D01*
X148034901Y-107271028D01*
X148020617Y-107211533D01*
X148044032Y-107155005D01*
X148049295Y-107149309D01*
X149137405Y-106061199D01*
X149148664Y-106053128D01*
X149147905Y-106052122D01*
X149155221Y-106046596D01*
X149155228Y-106046593D01*
X149187632Y-106011046D01*
X149189186Y-106009418D01*
X149203174Y-105995432D01*
X149203184Y-105995415D01*
X149205903Y-105992144D01*
X149257621Y-105959451D01*
X149318679Y-105963401D01*
G37*
%TD.AperFunction*%
%TA.AperFunction,Conductor*%
G36*
X141498821Y-98552407D02*
G01*
X141534785Y-98601907D01*
X141534785Y-98663093D01*
X141532094Y-98670385D01*
X141488457Y-98775733D01*
X141488455Y-98775741D01*
X141467818Y-98932499D01*
X141467818Y-98932500D01*
X141488455Y-99089258D01*
X141488457Y-99089266D01*
X141548962Y-99235338D01*
X141548962Y-99235339D01*
X141645213Y-99360776D01*
X141645218Y-99360782D01*
X141645222Y-99360785D01*
X141645223Y-99360786D01*
X141770657Y-99457035D01*
X141770658Y-99457035D01*
X141770659Y-99457036D01*
X141815387Y-99475562D01*
X141861910Y-99515296D01*
X141876500Y-99567025D01*
X141876500Y-101088625D01*
X141876312Y-101092927D01*
X141875945Y-101097131D01*
X141872736Y-101133806D01*
X141883354Y-101173436D01*
X141884289Y-101177652D01*
X141891411Y-101218045D01*
X141892164Y-101219348D01*
X141902054Y-101243224D01*
X141902443Y-101244679D01*
X141902446Y-101244684D01*
X141919441Y-101268956D01*
X141925971Y-101278281D01*
X141928288Y-101281918D01*
X141939352Y-101301080D01*
X141948806Y-101317455D01*
X141980224Y-101343818D01*
X141983410Y-101346737D01*
X142297504Y-101660830D01*
X142325281Y-101715347D01*
X142326500Y-101730834D01*
X142326500Y-101902748D01*
X142342049Y-102000919D01*
X142342050Y-102000923D01*
X142385180Y-102085569D01*
X142402342Y-102119251D01*
X142496249Y-102213158D01*
X142614580Y-102273451D01*
X142681130Y-102283991D01*
X142712751Y-102289000D01*
X142712754Y-102289000D01*
X143291249Y-102289000D01*
X143319803Y-102284476D01*
X143389420Y-102273451D01*
X143507751Y-102213158D01*
X143601658Y-102119251D01*
X143661951Y-102000920D01*
X143677500Y-101902746D01*
X143677500Y-101399254D01*
X143677499Y-101399250D01*
X143668121Y-101340038D01*
X143661951Y-101301080D01*
X143601658Y-101182749D01*
X143507751Y-101088842D01*
X143471223Y-101070230D01*
X143389423Y-101028550D01*
X143389420Y-101028549D01*
X143362012Y-101024208D01*
X143291249Y-101013000D01*
X143291246Y-101013000D01*
X142712754Y-101013000D01*
X142712751Y-101013000D01*
X142641987Y-101024208D01*
X142581555Y-101014637D01*
X142538290Y-100971372D01*
X142527500Y-100926427D01*
X142527500Y-100854527D01*
X142546407Y-100796336D01*
X142595907Y-100760372D01*
X142651487Y-100760372D01*
X142651733Y-100759245D01*
X142656893Y-100760372D01*
X142657093Y-100760372D01*
X142657460Y-100760495D01*
X142657624Y-100760531D01*
X142689271Y-100763499D01*
X142689276Y-100763500D01*
X142876999Y-100763500D01*
X142877000Y-100763498D01*
X142877000Y-99388500D01*
X142689277Y-99388500D01*
X142686965Y-99388608D01*
X142686923Y-99387712D01*
X142630392Y-99375013D01*
X142589978Y-99329074D01*
X142584285Y-99268154D01*
X142595146Y-99240346D01*
X142598033Y-99235344D01*
X142598036Y-99235341D01*
X142658544Y-99089262D01*
X142679182Y-98932500D01*
X142678260Y-98925500D01*
X142665315Y-98827170D01*
X142658544Y-98775738D01*
X142648567Y-98751652D01*
X142614906Y-98670385D01*
X142610105Y-98609389D01*
X142642075Y-98557220D01*
X142698603Y-98533805D01*
X142706370Y-98533500D01*
X143140130Y-98533500D01*
X143198321Y-98552407D01*
X143234285Y-98601907D01*
X143234285Y-98663093D01*
X143231594Y-98670385D01*
X143187957Y-98775733D01*
X143187955Y-98775741D01*
X143167318Y-98932499D01*
X143167318Y-98932500D01*
X143187955Y-99089258D01*
X143187957Y-99089266D01*
X143248461Y-99235336D01*
X143251151Y-99239994D01*
X143263876Y-99299841D01*
X143238994Y-99355739D01*
X143186008Y-99386335D01*
X143165418Y-99388500D01*
X143127000Y-99388500D01*
X143127000Y-100763499D01*
X143127001Y-100763500D01*
X143314724Y-100763500D01*
X143314728Y-100763499D01*
X143346375Y-100760531D01*
X143346384Y-100760529D01*
X143479753Y-100713861D01*
X143479759Y-100713858D01*
X143593446Y-100629953D01*
X143593453Y-100629946D01*
X143677358Y-100516259D01*
X143677361Y-100516253D01*
X143724029Y-100382884D01*
X143724031Y-100382875D01*
X143727217Y-100348912D01*
X143728280Y-100349011D01*
X143748519Y-100295326D01*
X143799632Y-100261693D01*
X143860751Y-100264528D01*
X143895834Y-100287161D01*
X144350994Y-100742322D01*
X144353913Y-100745508D01*
X144380271Y-100776920D01*
X144415809Y-100797437D01*
X144419442Y-100799752D01*
X144453042Y-100823279D01*
X144454492Y-100823667D01*
X144478375Y-100833560D01*
X144479681Y-100834314D01*
X144520092Y-100841439D01*
X144524281Y-100842367D01*
X144563919Y-100852989D01*
X144604791Y-100849413D01*
X144609091Y-100849226D01*
X145426439Y-100849226D01*
X145484630Y-100868133D01*
X145496443Y-100878222D01*
X146487815Y-101869596D01*
X146490734Y-101872782D01*
X146517092Y-101904194D01*
X146552621Y-101924707D01*
X146556256Y-101927022D01*
X146589863Y-101950554D01*
X146591314Y-101950942D01*
X146615206Y-101960840D01*
X146616501Y-101961588D01*
X146625401Y-101963157D01*
X146656912Y-101968713D01*
X146661091Y-101969638D01*
X146700740Y-101980263D01*
X146741612Y-101976687D01*
X146745912Y-101976500D01*
X146840939Y-101976500D01*
X146899130Y-101995407D01*
X146929148Y-102030554D01*
X146957180Y-102085569D01*
X146974342Y-102119251D01*
X147068249Y-102213158D01*
X147186580Y-102273451D01*
X147253130Y-102283991D01*
X147284751Y-102289000D01*
X147284754Y-102289000D01*
X147863249Y-102289000D01*
X147891803Y-102284476D01*
X147961420Y-102273451D01*
X148079751Y-102213158D01*
X148173658Y-102119251D01*
X148233951Y-102000920D01*
X148249500Y-101902746D01*
X148249500Y-101399254D01*
X148249500Y-101399251D01*
X148249500Y-101399250D01*
X148238292Y-101328487D01*
X148247863Y-101268055D01*
X148291128Y-101224790D01*
X148336073Y-101214000D01*
X148540666Y-101214000D01*
X148598857Y-101232907D01*
X148610670Y-101242996D01*
X148653195Y-101285521D01*
X148680972Y-101340038D01*
X148680972Y-101371009D01*
X148676501Y-101399251D01*
X148676500Y-101399255D01*
X148676500Y-101902748D01*
X148692049Y-102000919D01*
X148692050Y-102000923D01*
X148735180Y-102085569D01*
X148752342Y-102119251D01*
X148846249Y-102213158D01*
X148892805Y-102236879D01*
X148918792Y-102250121D01*
X148962056Y-102293386D01*
X148971627Y-102353818D01*
X148943849Y-102408334D01*
X148937486Y-102414165D01*
X148937321Y-102414302D01*
X148910955Y-102445724D01*
X148908037Y-102448908D01*
X147927413Y-103429533D01*
X147924229Y-103432450D01*
X147892807Y-103458816D01*
X147892806Y-103458818D01*
X147879306Y-103482199D01*
X147872581Y-103493849D01*
X147872292Y-103494349D01*
X147869972Y-103497990D01*
X147846446Y-103531590D01*
X147846442Y-103531598D01*
X147846051Y-103533060D01*
X147836170Y-103556914D01*
X147835414Y-103558222D01*
X147835410Y-103558234D01*
X147828287Y-103598623D01*
X147827353Y-103602838D01*
X147816736Y-103642461D01*
X147816736Y-103642467D01*
X147820312Y-103683346D01*
X147820500Y-103687647D01*
X147820500Y-104660711D01*
X147801593Y-104718902D01*
X147752093Y-104754866D01*
X147734424Y-104758864D01*
X147714736Y-104761456D01*
X147568661Y-104821962D01*
X147568660Y-104821962D01*
X147443223Y-104918213D01*
X147443213Y-104918223D01*
X147346962Y-105043660D01*
X147346962Y-105043661D01*
X147286457Y-105189733D01*
X147286455Y-105189741D01*
X147265818Y-105346499D01*
X147265818Y-105346500D01*
X147286455Y-105503258D01*
X147286457Y-105503267D01*
X147294811Y-105523435D01*
X147299610Y-105584432D01*
X147273350Y-105631321D01*
X146722668Y-106182006D01*
X146668151Y-106209784D01*
X146652664Y-106211003D01*
X146224970Y-106211003D01*
X146166779Y-106192096D01*
X146146428Y-106172270D01*
X146142195Y-106166754D01*
X146097282Y-106108221D01*
X146097277Y-106108217D01*
X146095815Y-106106755D01*
X146095138Y-106105427D01*
X146093332Y-106103073D01*
X146093768Y-106102738D01*
X146068038Y-106052238D01*
X146077609Y-105991806D01*
X146095821Y-105966742D01*
X146097273Y-105965288D01*
X146097282Y-105965282D01*
X146193536Y-105839841D01*
X146254044Y-105693762D01*
X146274682Y-105537000D01*
X146254044Y-105380238D01*
X146222776Y-105304752D01*
X146217976Y-105243759D01*
X146244240Y-105196863D01*
X146250548Y-105190554D01*
X146250552Y-105190552D01*
X146294867Y-105124231D01*
X146306500Y-105065748D01*
X146306500Y-103826252D01*
X146306456Y-103826033D01*
X146296377Y-103775362D01*
X146294867Y-103767769D01*
X146288943Y-103758904D01*
X146250554Y-103701451D01*
X146250552Y-103701448D01*
X146250548Y-103701445D01*
X146184233Y-103657134D01*
X146184231Y-103657133D01*
X146184228Y-103657132D01*
X146184227Y-103657132D01*
X146125758Y-103645501D01*
X146125748Y-103645500D01*
X145386252Y-103645500D01*
X145386251Y-103645500D01*
X145386241Y-103645501D01*
X145327772Y-103657132D01*
X145327766Y-103657134D01*
X145261451Y-103701445D01*
X145261445Y-103701451D01*
X145217134Y-103767766D01*
X145217132Y-103767772D01*
X145205501Y-103826241D01*
X145205500Y-103826253D01*
X145205500Y-105065755D01*
X145210786Y-105092328D01*
X145203594Y-105153089D01*
X145192231Y-105171906D01*
X145144464Y-105234158D01*
X145144463Y-105234160D01*
X145129527Y-105270220D01*
X145090026Y-105365585D01*
X145083957Y-105380236D01*
X145083955Y-105380241D01*
X145063318Y-105536999D01*
X145063318Y-105537000D01*
X145083955Y-105693758D01*
X145083957Y-105693766D01*
X145144462Y-105839838D01*
X145144462Y-105839839D01*
X145240713Y-105965276D01*
X145240718Y-105965282D01*
X145240722Y-105965285D01*
X145242184Y-105966747D01*
X145242859Y-105968073D01*
X145244668Y-105970430D01*
X145244231Y-105970765D01*
X145269961Y-106021264D01*
X145260390Y-106081696D01*
X145242189Y-106106749D01*
X145240719Y-106108218D01*
X145144463Y-106233663D01*
X145100139Y-106340670D01*
X145060402Y-106387196D01*
X145000907Y-106401479D01*
X144952715Y-106384451D01*
X144947409Y-106380815D01*
X144942042Y-106376563D01*
X144918480Y-106355084D01*
X144909309Y-106351531D01*
X144889133Y-106340895D01*
X144881031Y-106335345D01*
X144881026Y-106335343D01*
X144850004Y-106328046D01*
X144843449Y-106326016D01*
X144813724Y-106314501D01*
X144813721Y-106314500D01*
X144813720Y-106314500D01*
X144813719Y-106314500D01*
X144803895Y-106314500D01*
X144781230Y-106311870D01*
X144771666Y-106309621D01*
X144771665Y-106309621D01*
X144740094Y-106314025D01*
X144733248Y-106314500D01*
X143342826Y-106314500D01*
X143284635Y-106295593D01*
X143248671Y-106246093D01*
X143248671Y-106184907D01*
X143282559Y-106136958D01*
X143295654Y-106126910D01*
X143340782Y-106092282D01*
X143437036Y-105966841D01*
X143497544Y-105820762D01*
X143518182Y-105664000D01*
X143517962Y-105662332D01*
X143506850Y-105577923D01*
X143497544Y-105507238D01*
X143495897Y-105503262D01*
X143446243Y-105383385D01*
X143441442Y-105322389D01*
X143473412Y-105270220D01*
X143529940Y-105246805D01*
X143537707Y-105246500D01*
X143625747Y-105246500D01*
X143625748Y-105246500D01*
X143684231Y-105234867D01*
X143750552Y-105190552D01*
X143794867Y-105124231D01*
X143806500Y-105065748D01*
X143806500Y-103826252D01*
X143806456Y-103826033D01*
X143796377Y-103775362D01*
X143794867Y-103767769D01*
X143788943Y-103758904D01*
X143750554Y-103701451D01*
X143750552Y-103701448D01*
X143750548Y-103701445D01*
X143684233Y-103657134D01*
X143684231Y-103657133D01*
X143684228Y-103657132D01*
X143684227Y-103657132D01*
X143625758Y-103645501D01*
X143625748Y-103645500D01*
X142886252Y-103645500D01*
X142886251Y-103645500D01*
X142886241Y-103645501D01*
X142827772Y-103657132D01*
X142827766Y-103657134D01*
X142761451Y-103701445D01*
X142761445Y-103701451D01*
X142717134Y-103767766D01*
X142717132Y-103767772D01*
X142705501Y-103826241D01*
X142705500Y-103826253D01*
X142705500Y-104492118D01*
X142686593Y-104550309D01*
X142670139Y-104567954D01*
X142659305Y-104577044D01*
X142638792Y-104612575D01*
X142636472Y-104616216D01*
X142612946Y-104649816D01*
X142612942Y-104649824D01*
X142612551Y-104651286D01*
X142602670Y-104675140D01*
X142601914Y-104676448D01*
X142601910Y-104676460D01*
X142594787Y-104716849D01*
X142593853Y-104721064D01*
X142583236Y-104760687D01*
X142583236Y-104760693D01*
X142586812Y-104801572D01*
X142587000Y-104805873D01*
X142587000Y-105108028D01*
X142568093Y-105166219D01*
X142548268Y-105186570D01*
X142484218Y-105235717D01*
X142387962Y-105361160D01*
X142387962Y-105361161D01*
X142327457Y-105507233D01*
X142327455Y-105507241D01*
X142306818Y-105663999D01*
X142306818Y-105664000D01*
X142327455Y-105820758D01*
X142327457Y-105820766D01*
X142387962Y-105966838D01*
X142387962Y-105966839D01*
X142476095Y-106081696D01*
X142484218Y-106092282D01*
X142484222Y-106092285D01*
X142484223Y-106092286D01*
X142589725Y-106173240D01*
X142609659Y-106188536D01*
X142636032Y-106199460D01*
X142682557Y-106239195D01*
X142696842Y-106298690D01*
X142673428Y-106355218D01*
X142668151Y-106360928D01*
X142659340Y-106369739D01*
X142641459Y-106383903D01*
X142633098Y-106389080D01*
X142613889Y-106414515D01*
X142609385Y-106419692D01*
X142160377Y-106868700D01*
X142149148Y-106876813D01*
X142149877Y-106877778D01*
X142142558Y-106883304D01*
X142110159Y-106918843D01*
X142108583Y-106920494D01*
X142099508Y-106929570D01*
X142044993Y-106957351D01*
X141984560Y-106947783D01*
X141941293Y-106904521D01*
X141930500Y-106859571D01*
X141930500Y-103775362D01*
X141930687Y-103771061D01*
X141934263Y-103730193D01*
X141923638Y-103690544D01*
X141922713Y-103686365D01*
X141917157Y-103654854D01*
X141915588Y-103645954D01*
X141914840Y-103644659D01*
X141904942Y-103620767D01*
X141904554Y-103619316D01*
X141881022Y-103585709D01*
X141878707Y-103582074D01*
X141865862Y-103559827D01*
X141858194Y-103546545D01*
X141826765Y-103520172D01*
X141823588Y-103517261D01*
X141465746Y-103159420D01*
X141462827Y-103156235D01*
X141436456Y-103124806D01*
X141413818Y-103111736D01*
X141400918Y-103104288D01*
X141397288Y-103101975D01*
X141363684Y-103078446D01*
X141363679Y-103078443D01*
X141362224Y-103078054D01*
X141338348Y-103068164D01*
X141337045Y-103067411D01*
X141296652Y-103060289D01*
X141292436Y-103059354D01*
X141266153Y-103052312D01*
X141252807Y-103048736D01*
X141252806Y-103048736D01*
X141248381Y-103049123D01*
X141211926Y-103052312D01*
X141207626Y-103052500D01*
X140637834Y-103052500D01*
X140579643Y-103033593D01*
X140567830Y-103023504D01*
X139823300Y-102278973D01*
X139673496Y-102129168D01*
X139645719Y-102074652D01*
X139644500Y-102059165D01*
X139644500Y-102028970D01*
X139663407Y-101970779D01*
X139683233Y-101950428D01*
X139693475Y-101942569D01*
X139747282Y-101901282D01*
X139843536Y-101775841D01*
X139904044Y-101629762D01*
X139924682Y-101473000D01*
X139904044Y-101316238D01*
X139861696Y-101214000D01*
X139843537Y-101170161D01*
X139843537Y-101170160D01*
X139747286Y-101044723D01*
X139747285Y-101044722D01*
X139747282Y-101044718D01*
X139747277Y-101044714D01*
X139747276Y-101044713D01*
X139621838Y-100948462D01*
X139475766Y-100887957D01*
X139475758Y-100887955D01*
X139319001Y-100867318D01*
X139318999Y-100867318D01*
X139162241Y-100887955D01*
X139162233Y-100887957D01*
X139016161Y-100948462D01*
X139016158Y-100948464D01*
X139009763Y-100953371D01*
X138952086Y-100973792D01*
X138893422Y-100956412D01*
X138856177Y-100907868D01*
X138850500Y-100874826D01*
X138850500Y-100439123D01*
X138869407Y-100380932D01*
X138918907Y-100344968D01*
X138980093Y-100344968D01*
X139012301Y-100362593D01*
X139043899Y-100388524D01*
X139113547Y-100445683D01*
X139113548Y-100445683D01*
X139113550Y-100445685D01*
X139296046Y-100543232D01*
X139426440Y-100582786D01*
X139494065Y-100603300D01*
X139494070Y-100603301D01*
X139699997Y-100623583D01*
X139700000Y-100623583D01*
X139700003Y-100623583D01*
X139905929Y-100603301D01*
X139905934Y-100603300D01*
X139905933Y-100603300D01*
X140103954Y-100543232D01*
X140286450Y-100445685D01*
X140446410Y-100314410D01*
X140577685Y-100154450D01*
X140675232Y-99971954D01*
X140735300Y-99773934D01*
X140735301Y-99773929D01*
X140755583Y-99568003D01*
X140755583Y-99567996D01*
X140735301Y-99362070D01*
X140735300Y-99362065D01*
X140701506Y-99250662D01*
X140675232Y-99164046D01*
X140671196Y-99156496D01*
X140660439Y-99096265D01*
X140687140Y-99041213D01*
X140688503Y-99039823D01*
X141165832Y-98562496D01*
X141220348Y-98534719D01*
X141235835Y-98533500D01*
X141440630Y-98533500D01*
X141498821Y-98552407D01*
G37*
%TD.AperFunction*%
%TD*%
M02*
